<svg width="36" height="36" viewBox="0 0 36 36" fill="none" xmlns="http://www.w3.org/2000/svg">
<rect width="36" height="36" rx="4" fill="#111111"/>
<path d="M27 18C27 13.0298 22.9703 9 18 9C13.0297 9 9 13.0298 9 18C9 22.4921 12.2906 26.2153 16.5938 26.8903V20.6016H14.3083V17.9989H16.5938V16.0178C16.5938 13.7621 17.9381 12.5156 19.9935 12.5156C20.9779 12.5156 22.0078 12.6923 22.0078 12.6923V14.9068H20.8727C19.7544 14.9068 19.4057 15.6004 19.4057 16.3125V18H21.9015L21.5021 20.6021H19.4062V26.8909C23.7088 26.2153 27 22.4916 27 18Z" fill="white"/>
</svg>
