<svg width="36" height="36" viewBox="0 0 36 36" fill="none" xmlns="http://www.w3.org/2000/svg">
<rect width="36" height="36" rx="4" fill="#111111"/>
<path d="M18 9C15.5548 9 15.2494 9.01125 14.2898 9.054C13.3313 9.099 12.6787 9.24975 12.105 9.4725C11.5042 9.6982 10.96 10.0524 10.5103 10.5103C10.052 10.9596 9.69774 11.504 9.4725 12.105C9.24975 12.6787 9.09844 13.3313 9.054 14.2898C9.009 15.2499 9 15.5554 9 18C9 20.4452 9.01125 20.7506 9.054 21.7103C9.099 22.6682 9.24975 23.3212 9.4725 23.895C9.6984 24.4957 10.0526 25.0399 10.5103 25.4897C10.9599 25.9478 11.5041 26.302 12.105 26.5275C12.6793 26.7497 13.3318 26.9016 14.2898 26.946C15.2499 26.991 15.5554 27 18 27C20.4452 27 20.7506 26.9887 21.7103 26.946C22.6682 26.901 23.3212 26.7491 23.895 26.5275C24.4955 26.3013 25.0397 25.9472 25.4897 25.4897C25.9479 25.0403 26.3021 24.496 26.5275 23.895C26.7497 23.3212 26.9016 22.6682 26.946 21.7103C26.991 20.7501 27 20.4446 27 18C27 15.5548 26.9887 15.2494 26.946 14.2898C26.901 13.3318 26.7491 12.6782 26.5275 12.105C26.3015 11.5044 25.9474 10.9602 25.4897 10.5103C25.0405 10.0518 24.4961 9.69756 23.895 9.4725C23.3212 9.24975 22.6682 9.09844 21.7103 9.054C20.7501 9.009 20.4446 9 18 9ZM18 10.62C20.4019 10.62 20.6887 10.6318 21.6377 10.6734C22.5152 10.7145 22.9911 10.8602 23.3078 10.9845C23.7296 11.1476 24.0277 11.3423 24.3444 11.6567C24.6583 11.9717 24.8535 12.2709 25.0161 12.6923C25.1392 13.0089 25.2861 13.4854 25.326 14.3629C25.3688 15.3118 25.3783 15.597 25.3783 18C25.3783 20.403 25.3671 20.6887 25.3232 21.6377C25.2771 22.5152 25.1308 22.9911 25.0071 23.3078C24.8394 23.7296 24.6482 24.0277 24.3332 24.3444C24.0422 24.6423 23.6887 24.8717 23.2982 25.0161C22.9832 25.1392 22.4994 25.2861 21.6219 25.326C20.6662 25.3688 20.385 25.3783 17.9775 25.3783C15.5694 25.3783 15.2882 25.3671 14.3331 25.3232C13.455 25.2771 12.9713 25.1308 12.6562 25.0071C12.2293 24.8394 11.9362 24.6482 11.6218 24.3332C11.3208 24.0442 11.0899 23.6902 10.9468 23.2982C10.8231 22.9832 10.6779 22.4994 10.6318 21.6219C10.5981 20.6769 10.5862 20.385 10.5862 17.9887C10.5862 15.5919 10.5981 15.2994 10.6318 14.3432C10.6779 13.4657 10.8231 12.9825 10.9468 12.6675C11.1043 12.24 11.3062 11.9475 11.6218 11.6319C11.9362 11.3175 12.2293 11.115 12.6562 10.9575C12.9713 10.8338 13.4443 10.6875 14.3218 10.6425C15.2781 10.6088 15.5593 10.5975 17.9662 10.5975L18 10.62ZM18 13.3785C17.3931 13.3784 16.7921 13.4979 16.2313 13.7301C15.6706 13.9624 15.1611 14.3028 14.7319 14.7319C14.3028 15.1611 13.9624 15.6706 13.7301 16.2313C13.4979 16.7921 13.3784 17.3931 13.3785 18C13.3785 20.5537 15.4485 22.6215 18 22.6215C20.5537 22.6215 22.6215 20.5515 22.6215 18C22.6215 15.4463 20.5515 13.3785 18 13.3785V13.3785ZM18 21.0004C17.606 21.0004 17.2158 20.9229 16.8518 20.7721C16.4878 20.6214 16.157 20.4003 15.8784 20.1217C15.5999 19.8431 15.3789 19.5123 15.2282 19.1482C15.0775 18.7842 15 18.394 15.0002 18C15.0001 17.606 15.0777 17.2159 15.2284 16.8519C15.3791 16.4879 15.6001 16.1572 15.8786 15.8786C16.1572 15.6001 16.4879 15.3791 16.8519 15.2284C17.2159 15.0777 17.606 15.0001 18 15.0002C18.394 15.0001 18.7841 15.0777 19.1481 15.2284C19.5121 15.3791 19.8428 15.6001 20.1214 15.8786C20.3999 16.1572 20.6209 16.4879 20.7716 16.8519C20.9223 17.2159 20.9999 17.606 20.9998 18C20.9999 18.394 20.9223 18.7841 20.7716 19.1481C20.6209 19.5121 20.3999 19.8428 20.1214 20.1214C19.8428 20.3999 19.5121 20.6209 19.1481 20.7716C18.7841 20.9223 18.394 20.9999 18 20.9998V21.0004ZM23.8843 13.1963C23.8843 13.7925 23.4 14.2763 22.8043 14.2763C22.2081 14.2763 21.7243 13.7919 21.7243 13.1963C21.7334 12.9158 21.8511 12.65 22.0527 12.4548C22.2542 12.2597 22.5238 12.1505 22.8043 12.1505C23.0849 12.1505 23.3544 12.2597 23.556 12.4548C23.7575 12.65 23.8753 12.9158 23.8843 13.1963V13.1963Z" fill="white"/>
</svg>
