<svg width="36" height="36" viewBox="0 0 36 36" fill="none" xmlns="http://www.w3.org/2000/svg">
<path d="M32 0H4C1.79086 0 0 1.79086 0 4V32C0 34.2091 1.79086 36 4 36H32C34.2091 36 36 34.2091 36 32V4C36 1.79086 34.2091 0 32 0Z" fill="#111111"/>
<path d="M18 9C20.4453 9 20.7504 9.009 21.7098 9.054C22.6683 9.099 23.3208 9.2493 23.895 9.4725C24.489 9.7011 24.9894 10.0107 25.4898 10.5102C25.9474 10.9601 26.3016 11.5043 26.5275 12.105C26.7498 12.6783 26.901 13.3317 26.946 14.2902C26.9883 15.2496 27 15.5547 27 18C27 20.4453 26.991 20.7504 26.946 21.7098C26.901 22.6683 26.7498 23.3208 26.5275 23.895C26.3022 24.496 25.948 25.0404 25.4898 25.4898C25.0398 25.9473 24.4956 26.3014 23.895 26.5275C23.3217 26.7498 22.6683 26.901 21.7098 26.946C20.7504 26.9883 20.4453 27 18 27C15.5547 27 15.2496 26.991 14.2902 26.946C13.3317 26.901 12.6792 26.7498 12.105 26.5275C11.5041 26.302 10.9598 25.9479 10.5102 25.4898C10.0525 25.04 9.69834 24.4957 9.4725 23.895C9.2493 23.3217 9.099 22.6683 9.054 21.7098C9.0117 20.7504 9 20.4453 9 18C9 15.5547 9.009 15.2496 9.054 14.2902C9.099 13.3308 9.2493 12.6792 9.4725 12.105C9.69771 11.504 10.0519 10.9596 10.5102 10.5102C10.9599 10.0523 11.5042 9.69816 12.105 9.4725C12.6792 9.2493 13.3308 9.099 14.2902 9.054C15.2496 9.0117 15.5547 9 18 9ZM18 13.5C16.8065 13.5 15.6619 13.9741 14.818 14.818C13.9741 15.6619 13.5 16.8065 13.5 18C13.5 19.1935 13.9741 20.3381 14.818 21.182C15.6619 22.0259 16.8065 22.5 18 22.5C19.1935 22.5 20.3381 22.0259 21.182 21.182C22.0259 20.3381 22.5 19.1935 22.5 18C22.5 16.8065 22.0259 15.6619 21.182 14.818C20.3381 13.9741 19.1935 13.5 18 13.5V13.5ZM23.85 13.275C23.85 12.9766 23.7315 12.6905 23.5205 12.4795C23.3095 12.2685 23.0234 12.15 22.725 12.15C22.4266 12.15 22.1405 12.2685 21.9295 12.4795C21.7185 12.6905 21.6 12.9766 21.6 13.275C21.6 13.5734 21.7185 13.8595 21.9295 14.0705C22.1405 14.2815 22.4266 14.4 22.725 14.4C23.0234 14.4 23.3095 14.2815 23.5205 14.0705C23.7315 13.8595 23.85 13.5734 23.85 13.275ZM18 15.3C18.7161 15.3 19.4028 15.5845 19.9092 16.0908C20.4155 16.5972 20.7 17.2839 20.7 18C20.7 18.7161 20.4155 19.4028 19.9092 19.9092C19.4028 20.4155 18.7161 20.7 18 20.7C17.2839 20.7 16.5972 20.4155 16.0908 19.9092C15.5845 19.4028 15.3 18.7161 15.3 18C15.3 17.2839 15.5845 16.5972 16.0908 16.0908C16.5972 15.5845 17.2839 15.3 18 15.3V15.3Z" fill="#EFF4F9"/>
</svg>
