<svg width="36" height="36" viewBox="0 0 36 36" fill="none" xmlns="http://www.w3.org/2000/svg">
<rect width="36" height="36" rx="4" fill="#111111"/>
<path d="M26.6231 13.9806C26.5215 13.5976 26.3211 13.248 26.0419 12.9669C25.7627 12.6857 25.4146 12.4829 25.0324 12.3786C23.6289 12 18 12 18 12C18 12 12.3711 12 10.9671 12.3786C10.585 12.4831 10.237 12.686 9.95797 12.9671C9.67891 13.2483 9.47854 13.5977 9.37688 13.9806C9 15.3936 9 18.3411 9 18.3411C9 18.3411 9 21.2886 9.37688 22.7016C9.47843 23.0846 9.67884 23.4341 9.95802 23.7153C10.2372 23.9964 10.5854 24.1993 10.9676 24.3036C12.3705 24.6821 17.9994 24.6821 17.9994 24.6821C17.9994 24.6821 23.6284 24.6821 25.0324 24.3036C25.4147 24.1994 25.763 23.9966 26.0423 23.7154C26.3216 23.4342 26.5221 23.0846 26.6237 22.7016C27 21.2886 27 18.3411 27 18.3411C27 18.3411 27 15.3936 26.6231 13.9806V13.9806ZM16.1589 21.0174V15.6652L20.8631 18.3411L16.1584 21.0169L16.1589 21.0174Z" fill="white"/>
</svg>
