<svg xmlns="http://www.w3.org/2000/svg" xmlns:xlink="http://www.w3.org/1999/xlink" width="500" zoomAndPan="magnify" viewBox="0 0 375 374.999991" height="500" preserveAspectRatio="xMidYMid meet" version="1.0"><path fill="rgb(100%, 73.329163%, 0%)" d="M 305.113281 208.742188 C 298.949219 208.804688 292.96875 209.894531 287.179688 212.003906 L 283.835938 205.109375 L 283.835938 122.6875 L 243.820312 122.6875 L 225.535156 85.003906 L 298.878906 85.003906 L 298.878906 108.410156 L 311.351562 108.410156 L 311.351562 72.558594 L 205.628906 72.558594 L 236.710938 136.589844 L 120.457031 136.589844 L 92.070312 85.003906 L 129.488281 85.003906 L 129.488281 50.699219 L 40.082031 50.699219 L 40.082031 85.003906 L 77.863281 85.003906 L 109.457031 142.429688 L 82.015625 210.894531 C 77.34375 209.539062 72.574219 208.824219 67.707031 208.753906 C 65.960938 208.746094 64.21875 208.820312 62.480469 208.980469 C 60.742188 209.136719 59.011719 209.378906 57.296875 209.703125 C 55.582031 210.023438 53.882812 210.429688 52.207031 210.914062 C 50.53125 211.402344 48.878906 211.964844 47.257812 212.609375 C 45.632812 213.253906 44.046875 213.976562 42.492188 214.769531 C 40.9375 215.566406 39.425781 216.4375 37.957031 217.375 C 36.484375 218.316406 35.0625 219.328125 33.691406 220.402344 C 32.316406 221.480469 31 222.621094 29.734375 223.824219 C 28.472656 225.027344 27.269531 226.289062 26.128906 227.609375 C 24.984375 228.925781 23.910156 230.296875 22.898438 231.71875 C 21.886719 233.140625 20.949219 234.605469 20.078125 236.117188 C 19.210938 237.628906 18.414062 239.179688 17.695312 240.769531 C 16.972656 242.355469 16.332031 243.972656 15.765625 245.625 C 15.203125 247.273438 14.71875 248.945312 14.3125 250.640625 C 13.910156 252.335938 13.589844 254.046875 13.347656 255.773438 C 13.109375 257.5 12.953125 259.234375 12.882812 260.976562 C 12.808594 262.71875 12.820312 264.460938 12.914062 266.199219 C 13.007812 267.941406 13.1875 269.671875 13.449219 271.394531 C 13.710938 273.117188 14.054688 274.824219 14.480469 276.515625 C 14.90625 278.207031 15.410156 279.875 15.996094 281.515625 C 16.582031 283.15625 17.246094 284.765625 17.984375 286.347656 C 18.726562 287.925781 19.542969 289.464844 20.429688 290.964844 C 21.316406 292.464844 22.277344 293.917969 23.304688 295.328125 C 24.332031 296.738281 25.425781 298.09375 26.585938 299.398438 C 27.746094 300.703125 28.964844 301.945312 30.242188 303.132812 C 31.523438 304.320312 32.855469 305.445312 34.242188 306.503906 C 35.628906 307.5625 37.0625 308.554688 38.542969 309.476562 C 40.027344 310.398438 41.550781 311.25 43.113281 312.023438 C 44.675781 312.800781 46.273438 313.5 47.90625 314.125 C 49.535156 314.746094 51.195312 315.292969 52.875 315.757812 C 54.558594 316.222656 56.261719 316.605469 57.980469 316.90625 C 59.703125 317.207031 61.433594 317.425781 63.175781 317.5625 C 64.914062 317.699219 66.660156 317.75 68.40625 317.71875 C 70.152344 317.6875 71.890625 317.574219 73.628906 317.375 C 75.363281 317.175781 77.085938 316.898438 78.792969 316.535156 C 80.5 316.171875 82.1875 315.726562 83.855469 315.203125 C 85.519531 314.679688 87.15625 314.078125 88.761719 313.394531 C 90.371094 312.714844 91.941406 311.957031 93.476562 311.125 C 95.011719 310.296875 96.503906 309.390625 97.953125 308.417969 C 99.398438 307.445312 100.796875 306.402344 102.144531 305.292969 C 103.492188 304.183594 104.785156 303.015625 106.019531 301.78125 C 107.257812 300.550781 108.429688 299.261719 109.542969 297.917969 C 110.652344 296.574219 111.699219 295.179688 112.675781 293.734375 C 113.652344 292.289062 114.558594 290.804688 115.394531 289.273438 C 116.226562 287.742188 116.984375 286.171875 117.671875 284.570312 C 118.355469 282.964844 118.957031 281.332031 119.484375 279.671875 C 120.011719 278.007812 120.457031 276.324219 120.824219 274.621094 C 121.1875 272.914062 121.46875 271.199219 121.667969 269.464844 L 185.457031 269.464844 L 266.472656 197.789062 L 275.976562 217.371094 C 275.070312 217.953125 274.179688 218.5625 273.304688 219.195312 C 272.433594 219.832031 271.582031 220.492188 270.75 221.179688 C 269.914062 221.867188 269.105469 222.574219 268.3125 223.308594 C 267.523438 224.042969 266.757812 224.800781 266.011719 225.582031 C 265.265625 226.363281 264.542969 227.164062 263.847656 227.984375 C 263.148438 228.808594 262.476562 229.652344 261.832031 230.515625 C 261.183594 231.378906 260.5625 232.257812 259.96875 233.160156 C 259.375 234.058594 258.804688 234.976562 258.265625 235.910156 C 257.726562 236.84375 257.214844 237.789062 256.730469 238.753906 C 256.25 239.71875 255.796875 240.695312 255.371094 241.6875 C 254.945312 242.675781 254.550781 243.679688 254.1875 244.695312 C 253.820312 245.707031 253.484375 246.734375 253.183594 247.765625 C 252.878906 248.800781 252.605469 249.84375 252.363281 250.894531 C 252.121094 251.945312 251.914062 253 251.734375 254.0625 C 251.554688 255.125 251.410156 256.195312 251.292969 257.265625 C 251.179688 258.335938 251.09375 259.410156 251.042969 260.488281 C 250.992188 261.566406 250.976562 262.640625 250.988281 263.71875 C 251.003906 264.796875 251.046875 265.875 251.125 266.949219 C 251.203125 268.023438 251.3125 269.09375 251.453125 270.164062 C 251.597656 271.230469 251.769531 272.296875 251.976562 273.351562 C 252.179688 274.410156 252.417969 275.460938 252.683594 276.507812 C 252.953125 277.550781 253.25 278.585938 253.582031 279.613281 C 253.910156 280.636719 254.269531 281.652344 254.660156 282.660156 C 255.050781 283.664062 255.46875 284.65625 255.917969 285.636719 C 256.367188 286.617188 256.847656 287.582031 257.355469 288.535156 C 257.863281 289.484375 258.398438 290.421875 258.960938 291.339844 C 259.523438 292.261719 260.113281 293.164062 260.730469 294.046875 C 261.34375 294.933594 261.988281 295.796875 262.65625 296.644531 C 263.324219 297.492188 264.019531 298.316406 264.734375 299.121094 C 265.453125 299.925781 266.195312 300.710938 266.960938 301.472656 C 267.722656 302.234375 268.511719 302.96875 269.320312 303.683594 C 270.128906 304.398438 270.957031 305.089844 271.804688 305.753906 C 272.65625 306.417969 273.523438 307.058594 274.410156 307.671875 C 275.300781 308.285156 276.203125 308.875 277.128906 309.433594 C 278.050781 309.992188 278.988281 310.523438 279.945312 311.027344 C 280.898438 311.53125 281.867188 312.007812 282.851562 312.453125 C 283.832031 312.902344 284.828125 313.316406 285.835938 313.703125 C 286.84375 314.089844 287.863281 314.449219 288.890625 314.777344 C 289.921875 315.101562 290.957031 315.398438 292.003906 315.664062 C 293.050781 315.929688 294.105469 316.160156 295.167969 316.363281 C 296.226562 316.566406 297.292969 316.738281 298.363281 316.875 C 299.433594 317.015625 300.507812 317.121094 301.585938 317.199219 C 302.664062 317.273438 303.742188 317.316406 304.820312 317.328125 C 305.902344 317.339844 306.980469 317.316406 308.058594 317.265625 C 309.136719 317.210938 310.214844 317.125 311.289062 317.007812 C 312.359375 316.890625 313.429688 316.742188 314.496094 316.5625 C 315.558594 316.382812 316.617188 316.167969 317.667969 315.925781 C 318.722656 315.683594 319.765625 315.410156 320.800781 315.101562 C 321.835938 314.796875 322.863281 314.460938 323.878906 314.09375 C 324.894531 313.726562 325.898438 313.332031 326.890625 312.90625 C 327.882812 312.480469 328.859375 312.023438 329.824219 311.539062 C 330.789062 311.054688 331.738281 310.542969 332.671875 310.003906 C 333.605469 309.460938 334.523438 308.894531 335.425781 308.300781 C 336.324219 307.703125 337.207031 307.082031 338.070312 306.433594 C 338.933594 305.785156 339.777344 305.113281 340.597656 304.417969 C 341.421875 303.71875 342.222656 302.996094 343.003906 302.25 C 343.78125 301.507812 344.539062 300.738281 345.273438 299.949219 C 346.007812 299.15625 346.71875 298.347656 347.402344 297.515625 C 348.089844 296.679688 348.75 295.828125 349.386719 294.957031 C 350.019531 294.085938 350.628906 293.195312 351.210938 292.289062 C 351.792969 291.378906 352.347656 290.453125 352.871094 289.515625 C 353.398438 288.574219 353.898438 287.617188 354.367188 286.648438 C 354.835938 285.675781 355.277344 284.691406 355.6875 283.695312 C 356.097656 282.699219 356.480469 281.691406 356.828125 280.671875 C 357.179688 279.652344 357.5 278.625 357.789062 277.585938 C 358.078125 276.546875 358.335938 275.5 358.5625 274.449219 C 358.789062 273.394531 358.984375 272.335938 359.148438 271.269531 C 359.3125 270.203125 359.445312 269.132812 359.542969 268.0625 C 359.644531 266.988281 359.710938 265.914062 359.75 264.835938 C 359.785156 263.757812 359.789062 262.679688 359.757812 261.605469 C 359.730469 260.527344 359.667969 259.449219 359.578125 258.378906 C 359.484375 257.304688 359.359375 256.234375 359.203125 255.167969 C 359.046875 254.101562 358.855469 253.039062 358.636719 251.984375 C 358.417969 250.929688 358.167969 249.882812 357.882812 248.84375 C 357.601562 247.800781 357.289062 246.769531 356.945312 245.75 C 356.601562 244.726562 356.226562 243.71875 355.820312 242.71875 C 355.417969 241.71875 354.984375 240.730469 354.519531 239.757812 C 354.058594 238.785156 353.566406 237.824219 353.042969 236.882812 C 352.523438 235.9375 351.976562 235.007812 351.402344 234.097656 C 350.824219 233.183594 350.222656 232.292969 349.59375 231.414062 C 348.964844 230.539062 348.308594 229.683594 347.628906 228.847656 C 346.949219 228.007812 346.246094 227.191406 345.515625 226.398438 C 344.785156 225.601562 344.035156 224.828125 343.257812 224.078125 C 342.484375 223.328125 341.6875 222.601562 340.867188 221.898438 C 340.050781 221.195312 339.210938 220.515625 338.351562 219.863281 C 337.492188 219.210938 336.617188 218.582031 335.71875 217.984375 C 334.824219 217.382812 333.910156 216.808594 332.980469 216.261719 C 332.050781 215.714844 331.101562 215.195312 330.140625 214.703125 C 329.179688 214.214844 328.203125 213.753906 327.214844 213.320312 C 326.226562 212.886719 325.226562 212.484375 324.210938 212.113281 C 323.199219 211.738281 322.175781 211.394531 321.140625 211.082031 C 320.109375 210.769531 319.066406 210.488281 318.015625 210.238281 C 316.964844 209.988281 315.910156 209.769531 314.84375 209.582031 C 313.78125 209.394531 312.714844 209.238281 311.640625 209.117188 C 310.570312 208.992188 309.492188 208.898438 308.414062 208.839844 C 307.335938 208.777344 306.257812 208.75 305.175781 208.753906 Z M 52.554688 63.144531 L 117.003906 63.144531 L 117.003906 72.558594 L 52.554688 72.558594 Z M 155.894531 149.039062 L 193.863281 245.277344 L 184.683594 253.394531 L 127.308594 149.039062 Z M 117.226562 156.507812 L 172.523438 256.96875 L 121.632812 256.96875 C 121.382812 254.8125 121.003906 252.679688 120.496094 250.570312 C 119.992188 248.457031 119.359375 246.386719 118.601562 244.351562 C 117.847656 242.316406 116.972656 240.332031 115.976562 238.402344 C 114.984375 236.472656 113.878906 234.609375 112.660156 232.8125 C 111.441406 231.015625 110.117188 229.296875 108.691406 227.65625 C 107.269531 226.019531 105.75 224.46875 104.136719 223.011719 C 102.527344 221.554688 100.832031 220.199219 99.058594 218.945312 C 97.285156 217.691406 95.441406 216.546875 93.527344 215.515625 Z M 109.15625 256.96875 L 76.863281 256.96875 L 88.863281 227.089844 C 91.5625 228.671875 94.054688 230.53125 96.339844 232.667969 C 98.625 234.804688 100.644531 237.167969 102.394531 239.753906 C 104.148438 242.34375 105.59375 245.09375 106.730469 248.003906 C 107.867188 250.914062 108.667969 253.914062 109.132812 257.003906 Z M 67.644531 305.269531 C 66.15625 305.285156 64.667969 305.21875 63.183594 305.078125 C 61.699219 304.9375 60.226562 304.71875 58.765625 304.417969 C 57.304688 304.121094 55.863281 303.746094 54.445312 303.296875 C 53.023438 302.847656 51.628906 302.320312 50.265625 301.722656 C 48.898438 301.125 47.570312 300.457031 46.277344 299.71875 C 44.980469 298.980469 43.730469 298.171875 42.523438 297.300781 C 41.3125 296.429688 40.15625 295.496094 39.046875 294.503906 C 37.9375 293.507812 36.882812 292.457031 35.886719 291.351562 C 34.890625 290.246094 33.953125 289.089844 33.078125 287.886719 C 32.207031 286.679688 31.398438 285.433594 30.65625 284.140625 C 29.914062 282.851562 29.242188 281.523438 28.644531 280.160156 C 28.042969 278.800781 27.515625 277.410156 27.0625 275.992188 C 26.609375 274.574219 26.234375 273.136719 25.933594 271.679688 C 25.636719 270.222656 25.414062 268.753906 25.269531 267.269531 C 25.128906 265.789062 25.0625 264.304688 25.078125 262.816406 C 25.09375 261.328125 25.1875 259.847656 25.359375 258.367188 C 25.53125 256.890625 25.78125 255.425781 26.109375 253.976562 C 26.4375 252.523438 26.84375 251.09375 27.324219 249.683594 C 27.804688 248.277344 28.355469 246.898438 28.984375 245.546875 C 29.613281 244.199219 30.308594 242.882812 31.074219 241.609375 C 31.84375 240.332031 32.675781 239.101562 33.574219 237.914062 C 34.46875 236.726562 35.429688 235.589844 36.449219 234.5 C 37.46875 233.414062 38.539062 232.386719 39.667969 231.414062 C 40.796875 230.441406 41.972656 229.53125 43.199219 228.683594 C 44.425781 227.835938 45.691406 227.054688 47 226.339844 C 48.308594 225.628906 49.652344 224.984375 51.027344 224.414062 C 52.40625 223.84375 53.808594 223.347656 55.238281 222.925781 C 56.667969 222.5 58.113281 222.15625 59.582031 221.886719 C 61.046875 221.617188 62.523438 221.425781 64.011719 221.3125 C 65.496094 221.203125 66.984375 221.167969 68.476562 221.210938 C 69.964844 221.257812 71.449219 221.382812 72.925781 221.585938 C 74.402344 221.785156 75.867188 222.066406 77.3125 222.421875 L 58.429688 269.453125 L 109.132812 269.453125 C 108.949219 270.683594 108.714844 271.902344 108.421875 273.109375 C 108.128906 274.320312 107.785156 275.511719 107.386719 276.691406 C 106.992188 277.871094 106.542969 279.027344 106.039062 280.167969 C 105.539062 281.304688 104.988281 282.417969 104.390625 283.507812 C 103.789062 284.597656 103.140625 285.660156 102.449219 286.691406 C 101.753906 287.722656 101.015625 288.722656 100.230469 289.6875 C 99.449219 290.65625 98.625 291.585938 97.757812 292.480469 C 96.890625 293.371094 95.988281 294.226562 95.042969 295.039062 C 94.101562 295.851562 93.125 296.621094 92.117188 297.347656 C 91.105469 298.074219 90.0625 298.757812 88.992188 299.390625 C 87.921875 300.023438 86.824219 300.609375 85.699219 301.148438 C 84.578125 301.683594 83.433594 302.171875 82.265625 302.605469 C 81.097656 303.042969 79.914062 303.425781 78.714844 303.757812 C 77.511719 304.085938 76.300781 304.363281 75.074219 304.585938 C 73.847656 304.808594 72.617188 304.976562 71.375 305.09375 C 70.136719 305.207031 68.890625 305.265625 67.644531 305.269531 Z M 203.84375 236.492188 L 169.292969 149.039062 L 242.710938 149.039062 L 260.386719 186.386719 Z M 249.859375 135.136719 L 271.351562 135.136719 L 271.351562 179.414062 L 252.640625 140.824219 L 250.65625 136.640625 Z M 305.101562 305.269531 C 303.988281 305.265625 302.875 305.222656 301.761719 305.132812 C 300.652344 305.042969 299.546875 304.910156 298.445312 304.730469 C 297.34375 304.554688 296.25 304.335938 295.167969 304.070312 C 294.085938 303.808594 293.015625 303.5 291.957031 303.152344 C 290.898438 302.804688 289.851562 302.414062 288.824219 301.980469 C 287.796875 301.550781 286.789062 301.078125 285.796875 300.566406 C 284.808594 300.054688 283.839844 299.507812 282.894531 298.917969 C 281.945312 298.328125 281.023438 297.707031 280.128906 297.042969 C 279.230469 296.382812 278.363281 295.6875 277.519531 294.957031 C 276.679688 294.226562 275.867188 293.464844 275.089844 292.667969 C 274.308594 291.875 273.558594 291.050781 272.84375 290.195312 C 272.128906 289.34375 271.449219 288.460938 270.804688 287.554688 C 270.160156 286.648438 269.550781 285.714844 268.980469 284.757812 C 268.410156 283.804688 267.878906 282.824219 267.386719 281.828125 C 266.894531 280.828125 266.441406 279.8125 266.027344 278.78125 C 265.617188 277.746094 265.246094 276.695312 264.917969 275.632812 C 264.589844 274.570312 264.304688 273.496094 264.058594 272.410156 C 263.816406 271.324219 263.617188 270.230469 263.460938 269.128906 C 263.304688 268.027344 263.195312 266.917969 263.125 265.808594 C 263.058594 264.699219 263.035156 263.585938 263.054688 262.472656 C 263.078125 261.363281 263.140625 260.25 263.25 259.144531 C 263.359375 258.035156 263.511719 256.933594 263.710938 255.839844 C 263.90625 254.746094 264.144531 253.660156 264.429688 252.582031 C 264.710938 251.507812 265.039062 250.441406 265.40625 249.390625 C 265.773438 248.34375 266.183594 247.308594 266.632812 246.289062 C 267.082031 245.273438 267.574219 244.273438 268.101562 243.292969 C 268.632812 242.316406 269.199219 241.359375 269.804688 240.421875 C 270.414062 239.488281 271.054688 238.582031 271.734375 237.699219 C 272.410156 236.816406 273.125 235.960938 273.871094 235.132812 C 274.617188 234.304688 275.394531 233.511719 276.203125 232.746094 C 277.011719 231.980469 277.851562 231.25 278.71875 230.550781 C 279.589844 229.851562 280.484375 229.1875 281.402344 228.5625 L 299.550781 265.90625 L 310.777344 260.476562 L 292.652344 223.28125 C 296.703125 221.945312 300.863281 221.25 305.128906 221.191406 C 306.507812 221.191406 307.882812 221.257812 309.257812 221.394531 C 310.628906 221.527344 311.992188 221.730469 313.34375 222 C 314.699219 222.265625 316.035156 222.601562 317.355469 223 C 318.675781 223.402344 319.972656 223.863281 321.246094 224.390625 C 322.523438 224.917969 323.765625 225.507812 324.984375 226.15625 C 326.199219 226.804688 327.382812 227.511719 328.53125 228.277344 C 329.675781 229.039062 330.785156 229.859375 331.851562 230.734375 C 332.917969 231.605469 333.9375 232.53125 334.914062 233.503906 C 335.886719 234.476562 336.8125 235.496094 337.6875 236.5625 C 338.5625 237.625 339.386719 238.730469 340.152344 239.875 C 340.917969 241.019531 341.625 242.199219 342.277344 243.414062 C 342.925781 244.625 343.515625 245.871094 344.042969 247.140625 C 344.570312 248.414062 345.035156 249.707031 345.4375 251.027344 C 345.835938 252.34375 346.171875 253.679688 346.441406 255.027344 C 346.710938 256.378906 346.914062 257.738281 347.046875 259.109375 C 347.183594 260.480469 347.25 261.851562 347.25 263.230469 C 347.25 264.605469 347.183594 265.980469 347.046875 267.351562 C 346.914062 268.71875 346.710938 270.082031 346.441406 271.429688 C 346.171875 272.78125 345.835938 274.113281 345.4375 275.433594 C 345.035156 276.75 344.570312 278.042969 344.042969 279.316406 C 343.515625 280.589844 342.925781 281.832031 342.277344 283.046875 C 341.625 284.261719 340.917969 285.441406 340.152344 286.585938 C 339.386719 287.730469 338.5625 288.832031 337.6875 289.898438 C 336.8125 290.960938 335.886719 291.980469 334.914062 292.953125 C 333.9375 293.929688 332.917969 294.851562 331.851562 295.726562 C 330.785156 296.597656 329.675781 297.417969 328.53125 298.183594 C 327.382812 298.949219 326.199219 299.65625 324.984375 300.304688 C 323.765625 300.953125 322.523438 301.539062 321.246094 302.066406 C 319.972656 302.59375 318.675781 303.058594 317.355469 303.457031 C 316.035156 303.855469 314.699219 304.191406 313.34375 304.460938 C 311.992188 304.726562 310.628906 304.929688 309.257812 305.066406 C 307.882812 305.199219 306.507812 305.269531 305.128906 305.269531 Z M 305.101562 305.269531 " fill-opacity="1" fill-rule="nonzero"/><path fill="rgb(100%, 73.329163%, 0%)" d="M 205.351562 50.699219 L 305.113281 50.699219 L 305.113281 63.144531 L 205.351562 63.144531 Z M 205.351562 50.699219 " fill-opacity="1" fill-rule="nonzero"/></svg>