<svg width="1119" height="1109" viewBox="0 0 1119 1109" fill="none" xmlns="http://www.w3.org/2000/svg">
<path d="M407.462 1070.98L418.592 1074.22L417.052 1079.73L407.332 1076.9C405.692 1076.42 404.232 1076.25 402.952 1076.4C401.646 1076.56 400.559 1077.02 399.691 1077.76C398.817 1078.53 398.187 1079.57 397.803 1080.89C397.377 1082.35 397.31 1083.62 397.602 1084.71C397.894 1085.79 398.559 1086.71 399.596 1087.47C400.614 1088.22 402.013 1088.86 403.793 1089.37L411.084 1091.5L422.066 1053.82L429.596 1056.01L416.865 1099.69L402.044 1095.37C399.644 1094.68 397.571 1093.82 395.825 1092.81C394.059 1091.8 392.659 1090.61 391.624 1089.25C390.564 1087.9 389.91 1086.38 389.661 1084.7C389.392 1083.02 389.555 1081.16 390.15 1079.12C390.674 1077.32 391.585 1075.79 392.883 1074.54C394.174 1073.31 395.797 1072.47 397.751 1072.02C399.705 1071.57 401.958 1071.62 404.511 1072.17L407.462 1070.98ZM413.545 1051.33L426.716 1055.17L421.586 1060.15L411.805 1057.3C410.105 1056.81 408.603 1056.67 407.3 1056.9C405.991 1057.15 404.911 1057.69 404.059 1058.53C403.182 1059.38 402.545 1060.49 402.149 1061.85C401.735 1063.27 401.626 1064.57 401.823 1065.75C402.014 1066.96 402.568 1068 403.485 1068.88C404.396 1069.77 405.722 1070.47 407.462 1070.98L415.922 1073.44L414.262 1078.92L403.252 1075.71L402.145 1073.14C399.768 1072.36 397.952 1071.26 396.698 1069.83C395.423 1068.39 394.633 1066.78 394.328 1065C394.023 1063.22 394.132 1061.43 394.657 1059.63C395.467 1056.85 396.756 1054.7 398.524 1053.17C400.272 1051.64 402.419 1050.72 404.965 1050.4C407.505 1050.09 410.365 1050.41 413.545 1051.33Z" fill="black"/>
<path d="M344.086 1074.83L361.337 1032.73L368.596 1035.7L351.344 1077.8L344.086 1074.83Z" fill="black"/>
<path d="M300.786 1054.55L322.368 1014.49L329.273 1018.21L307.692 1058.27L300.786 1054.55ZM276.714 1041.58L303.336 1031.04L317.857 1026.22L315.376 1033.72L304.386 1038.31L285.133 1046.11L276.714 1041.58ZM305.723 1005.52L308.674 1031.6L301.38 1033.74L297.525 1001.1L305.723 1005.52Z" fill="black"/>
<path d="M238.798 978.864L232.504 974.235C234.47 971.983 236.715 970.337 239.239 969.297C241.75 968.273 244.433 967.983 247.287 968.427C250.141 968.871 253.046 970.179 255.999 972.351C258.265 974.017 260.008 975.92 261.228 978.058C262.436 980.214 263.137 982.514 263.331 984.958C263.513 987.419 263.164 989.968 262.284 992.605C261.388 995.231 259.971 997.861 258.034 1000.5L255.794 1003.54C253.856 1006.18 251.759 1008.31 249.504 1009.93C247.231 1011.55 244.885 1012.63 242.465 1013.17C240.033 1013.74 237.606 1013.75 235.184 1013.21C232.745 1012.66 230.376 1011.54 228.077 1009.85C225.156 1007.7 223.084 1005.35 221.86 1002.79C220.636 1000.24 220.167 997.605 220.454 994.894C220.724 992.17 221.635 989.491 223.185 986.855L229.479 991.483C228.486 993.184 227.862 994.807 227.606 996.351C227.333 997.883 227.526 999.344 228.185 1000.73C228.831 1002.14 230.036 1003.49 231.798 1004.79C233.241 1005.85 234.698 1006.51 236.167 1006.76C237.636 1007.01 239.114 1006.88 240.601 1006.37C242.088 1005.86 243.577 1004.98 245.07 1003.72C246.533 1002.47 247.981 1000.87 249.412 998.927L251.689 995.83C253.047 993.984 254.122 992.189 254.914 990.444C255.677 988.703 256.117 987.049 256.236 985.481C256.338 983.901 256.076 982.428 255.45 981.063C254.825 979.698 253.774 978.472 252.297 977.386C250.501 976.066 248.839 975.283 247.312 975.04C245.768 974.783 244.309 974.991 242.936 975.662C241.534 976.338 240.155 977.405 238.798 978.864Z" fill="black"/>
<path d="M180.182 969.765L168.672 958.516C166.199 956.099 164.455 953.666 163.44 951.217C162.425 948.768 162.169 946.363 162.672 944C163.146 941.637 164.424 939.39 166.507 937.26C168.094 935.636 169.79 934.497 171.595 933.843C173.399 933.189 175.26 932.968 177.178 933.182C179.081 933.411 181.011 934.03 182.967 935.039L185.474 935.872L195.821 945.985L191.519 950.476L183.764 942.897C182.423 941.586 181.073 940.732 179.713 940.335C178.353 939.938 177.049 939.931 175.801 940.314C174.524 940.697 173.375 941.41 172.356 942.452C171.249 943.585 170.512 944.787 170.143 946.058C169.745 947.329 169.782 948.633 170.254 949.968C170.712 951.318 171.64 952.678 173.041 954.046L178.941 959.813L206.376 931.743L211.985 937.226L180.182 969.765ZM193.414 919.075L186.772 941.161L180.872 935.438L187.14 913.511L187.424 913.221L193.414 919.075Z" fill="black"/>
<path d="M120.369 894.759L159.92 881.499L164.93 888.014L118.42 902.171L115.22 898.008L120.369 894.759ZM144.702 861.704L121.741 896.543L117.296 900.709L114.077 896.522L139.673 855.163L144.702 861.704ZM131.723 872.51L136.653 868.719L151.739 888.341L146.809 892.131L131.723 872.51Z" fill="black"/>
<path d="M77.759 842.211L117.209 819.541L121.117 826.342L81.667 849.012L77.759 842.211ZM85.7701 816.198L91.162 813.1L101.407 830.928L96.015 834.027L85.7701 816.198ZM67.2182 823.867L72.6372 820.753L84.1745 840.831L78.7555 843.945L67.2182 823.867Z" fill="black"/>
<path d="M42.4471 770.802L84.4661 753.348L87.451 760.534L45.4321 777.988L42.4471 770.802ZM36.9686 757.614L42.7405 755.216L56.6344 788.664L50.8626 791.061L36.9686 757.614Z" fill="black"/>
<path d="M35.4306 660.101L37.6787 671.474L32.0806 672.644L30.1173 662.712C29.786 661.036 29.26 659.664 28.5392 658.596C27.7939 657.511 26.8907 656.756 25.8293 656.328C24.7475 655.905 23.5322 655.827 22.1833 656.093C20.6913 656.388 19.5318 656.915 18.7048 657.673C17.8778 658.431 17.3668 659.445 17.1719 660.715C16.973 661.965 17.0533 663.499 17.4129 665.318L18.8854 672.768L57.3904 665.157L58.9114 672.852L14.275 681.675L11.2815 666.53C10.7967 664.078 10.5995 661.845 10.6898 659.83C10.7761 657.796 11.1867 656.005 11.9215 654.458C12.6318 652.895 13.6745 651.617 15.0496 650.623C16.4206 649.608 18.1484 648.895 20.2331 648.483C22.0725 648.12 23.8455 648.226 25.5521 648.802C27.2382 649.382 28.7312 650.435 30.0311 651.962C31.331 653.489 32.3255 655.511 33.0144 658.03L35.4306 660.101ZM55.6694 656.45L58.3296 669.909L51.5442 667.65L49.5687 657.656C49.2253 655.919 48.6524 654.525 47.8498 653.473C47.0269 652.425 46.0479 651.716 44.9129 651.346C43.7534 650.959 42.4787 650.903 41.089 651.178C39.6379 651.465 38.4314 651.968 37.4697 652.689C36.4874 653.415 35.8193 654.385 35.4652 655.602C35.0906 656.823 35.0791 658.322 35.4306 660.101L37.1394 668.746L31.5171 669.793L29.2932 658.542L31.0631 656.377C30.66 653.908 30.8037 651.788 31.4941 650.016C32.1805 648.224 33.244 646.782 34.6846 645.69C36.1252 644.599 37.7653 643.871 39.6047 643.507C42.4455 642.946 44.9498 643.099 47.1174 643.966C49.2809 644.812 51.0917 646.291 52.5496 648.403C53.9871 650.518 55.0271 653.201 55.6694 656.45Z" fill="black"/>
<path d="M2.81805 605.623L48.1345 601.54L48.8383 609.352L3.52189 613.435L2.81805 605.623Z" fill="black"/>
<path d="M31.8489 540.576L31.9813 532.765C34.9558 533.065 37.5975 533.943 39.9065 535.399C42.1947 536.855 43.9836 538.875 45.2734 541.46C46.5631 544.045 47.1769 547.17 47.1147 550.836C47.0671 553.648 46.5243 556.171 45.4863 558.404C44.4275 560.636 42.9575 562.538 41.0764 564.111C39.1745 565.683 36.8936 566.874 34.2337 567.683C31.5741 568.471 28.6091 568.838 25.3388 568.782L21.5581 568.718C18.2877 568.663 15.337 568.186 12.7061 567.287C10.0754 566.367 7.83652 565.079 5.98932 563.422C4.12129 561.766 2.70659 559.793 1.74521 557.506C0.78419 555.198 0.327859 552.617 0.376222 549.763C0.437647 546.138 1.15611 543.088 2.53161 540.611C3.90712 538.134 5.78343 536.228 8.16056 534.893C10.538 533.537 13.25 532.729 16.2966 532.468L16.1642 540.279C14.2026 540.454 12.518 540.884 11.1104 541.569C9.70308 542.232 8.62344 543.235 7.87143 544.577C7.09859 545.918 6.69364 547.682 6.65657 549.869C6.62621 551.661 6.93302 553.229 7.577 554.573C8.22098 555.918 9.18112 557.049 10.4574 557.966C11.7337 558.884 13.3158 559.588 15.2036 560.078C17.0709 560.547 19.2127 560.802 21.629 560.843L25.4722 560.909C27.7636 560.947 29.8499 560.785 31.7314 560.421C33.5923 560.036 35.1965 559.438 36.5437 558.627C37.8913 557.796 38.9408 556.73 39.6921 555.43C40.4434 554.13 40.8346 552.563 40.8656 550.73C40.9034 548.502 40.5798 546.694 39.8949 545.307C39.2103 543.899 38.197 542.83 36.8551 542.099C35.4926 541.346 33.8239 540.839 31.8489 540.576Z" fill="black"/>
<path d="M5.67553 486.563L50.8276 492.179L49.8595 499.963L4.70738 494.347L5.67553 486.563Z" fill="black"/>
<path d="M47.8352 429.148L49.6204 421.542C52.4636 422.466 54.8591 423.885 56.807 425.797C58.7346 427.705 60.0547 430.058 60.7672 432.857C61.4797 435.657 61.417 438.841 60.5792 442.411C59.9365 445.149 58.8713 447.499 57.3836 449.461C55.8757 451.418 54.0358 452.966 51.8642 454.104C49.6722 455.237 47.1907 455.917 44.4197 456.144C41.6535 456.351 38.6782 456.081 35.4939 455.333L31.8127 454.469C28.6284 453.722 25.8459 452.63 23.4653 451.194C21.0894 449.737 19.1744 448.004 17.7203 445.993C16.246 443.978 15.2815 441.751 14.8269 439.312C14.377 436.852 14.4781 434.233 15.1303 431.454C15.9587 427.925 17.3075 425.096 19.1768 422.967C21.0461 420.838 23.2838 419.373 25.8899 418.572C28.5008 417.751 31.3225 417.536 34.3551 417.927L32.5699 425.533C30.6157 425.288 28.8783 425.351 27.3575 425.722C25.8415 426.072 24.5739 426.823 23.5546 427.975C22.515 429.122 21.7452 430.76 21.2454 432.89C20.836 434.634 20.8035 436.231 21.1478 437.682C21.4922 439.132 22.1907 440.441 23.2435 441.608C24.2963 442.776 25.6932 443.799 27.4341 444.678C29.1595 445.533 31.1986 446.236 33.5513 446.788L37.2934 447.667C39.5244 448.19 41.5979 448.474 43.5137 448.517C45.414 448.535 47.1084 448.29 48.5969 447.784C50.0901 447.257 51.3417 446.438 52.3514 445.327C53.3612 444.216 54.0756 442.768 54.4945 440.983C55.0039 438.813 55.0709 436.977 54.6955 435.477C54.3249 433.956 53.5613 432.696 52.4048 431.697C51.2328 430.673 49.7096 429.823 47.8352 429.148Z" fill="black"/>
<path d="M79.3506 360.967L85.1676 363.165L77.0902 384.533L71.2732 382.335L79.3506 360.967ZM35.3031 366.399L77.8637 382.487L75.0902 389.824L32.5296 373.736L35.3031 366.399Z" fill="black"/>
<path d="M107.957 302.366L113.46 305.264L102.203 326.637L96.7007 323.739L107.957 302.366ZM62.979 303.472L103.237 324.674L99.5817 331.614L59.3238 310.412L62.979 303.472ZM88.5419 295.708L93.9612 298.562L84.1754 317.143L78.756 314.288L88.5419 295.708ZM73.1288 284.2L78.6588 287.112L67.475 308.347L61.945 305.435L73.1288 284.2Z" fill="black"/>
<path d="M104.801 234.952L141.987 261.171L137.503 267.53L100.317 241.311L104.801 234.952ZM113.03 223.28L118.138 226.881L97.2677 256.482L92.1597 252.881L113.03 223.28Z" fill="black"/>
<path d="M157.425 180.439L176.923 217.316L171.305 223.316L149.796 179.717L153.384 175.884L157.425 180.439ZM193.988 199.089L155.887 182.081L151.056 178.371L154.665 174.516L199.627 193.067L193.988 199.089ZM181.221 188.035L185.761 192.285L168.845 210.352L164.305 206.102L181.221 188.035Z" fill="black"/>
<path d="M234.542 147.264C233.953 146.535 233.315 145.978 232.63 145.595C231.961 145.198 231.161 144.987 230.23 144.963C229.3 144.938 228.155 145.114 226.797 145.488C225.442 145.834 223.805 146.394 221.886 147.168C219.782 148.012 217.762 148.694 215.826 149.215C213.892 149.706 212.058 149.957 210.324 149.966C208.577 149.958 206.966 149.64 205.493 149.01C204.006 148.363 202.673 147.311 201.494 145.853C200.328 144.411 199.567 142.857 199.21 141.189C198.869 139.509 198.911 137.788 199.335 136.025C199.761 134.233 200.554 132.48 201.714 130.766C202.86 129.036 204.364 127.418 206.227 125.911C208.852 123.789 211.505 122.448 214.186 121.888C216.884 121.314 219.404 121.433 221.748 122.244C224.108 123.042 226.087 124.429 227.685 126.406L221.634 131.298C220.691 130.132 219.608 129.306 218.385 128.821C217.166 128.307 215.844 128.196 214.42 128.49C213.013 128.77 211.548 129.526 210.025 130.758C208.583 131.923 207.561 133.111 206.959 134.322C206.357 135.532 206.122 136.699 206.255 137.824C206.387 138.95 206.834 139.982 207.593 140.922C208.13 141.586 208.775 142.069 209.529 142.371C210.269 142.657 211.145 142.779 212.156 142.738C213.155 142.681 214.296 142.468 215.579 142.1C216.862 141.733 218.303 141.211 219.9 140.536C222.332 139.534 224.565 138.8 226.599 138.334C228.621 137.852 230.477 137.664 232.17 137.769C233.862 137.874 235.41 138.297 236.813 139.038C238.203 139.763 239.474 140.838 240.627 142.264C241.832 143.754 242.619 145.341 242.989 147.025C243.346 148.692 243.306 150.399 242.869 152.145C242.435 153.862 241.624 155.576 240.436 157.287C239.25 158.969 237.71 160.576 235.814 162.109C234.113 163.484 232.253 164.613 230.234 165.495C228.231 166.364 226.184 166.881 224.092 167.045C221.988 167.192 219.976 166.89 218.056 166.139C216.122 165.371 214.396 164.048 212.876 162.168L218.976 157.237C219.906 158.387 220.893 159.21 221.936 159.706C222.996 160.188 224.092 160.401 225.224 160.343C226.343 160.269 227.471 159.973 228.607 159.457C229.759 158.927 230.878 158.223 231.963 157.346C233.389 156.193 234.416 155.028 235.045 153.85C235.689 152.659 235.96 151.502 235.856 150.38C235.753 149.258 235.315 148.22 234.542 147.264Z" fill="black"/>
<path d="M323.024 104.062L314.403 108.549L311.588 103.003L320.153 98.5458C322.648 97.2474 324.453 95.6154 325.567 93.6499C326.7 91.6747 327.162 89.4495 326.954 86.9742C326.765 84.4894 325.94 81.8424 324.478 79.0333L323.338 76.8434C322.203 74.6627 320.949 72.8613 319.574 71.4392C318.219 70.0076 316.762 68.9689 315.205 68.3232C313.666 67.6679 312.05 67.4052 310.356 67.5352C308.681 67.6555 306.947 68.1821 305.154 69.115L296.117 73.8179L293.232 68.2738L302.269 63.5708C304.949 62.1763 307.633 61.3547 310.322 61.1062C313.001 60.8391 315.582 61.1281 318.065 61.9731C320.567 62.8085 322.863 64.1737 324.953 66.0687C327.043 67.9637 328.843 70.362 330.352 73.2634L331.463 75.3979C332.973 78.2994 333.905 81.1496 334.257 83.9487C334.61 86.7477 334.411 89.4113 333.66 91.9394C332.899 94.449 331.627 96.7432 329.844 98.8221C328.069 100.873 325.796 102.62 323.024 104.062ZM297.251 66.182L318.256 106.544L311.298 110.165L290.294 69.803L297.251 66.182Z" fill="black"/>
<path d="M399.421 65.0913L401.53 70.9416L378.805 79.1331L376.696 73.2829L399.421 65.0913ZM365.463 35.5767L380.893 78.3807L373.514 81.0406L358.084 38.2366L365.463 35.5767ZM389.575 47.0821L391.652 52.8441L371.896 59.9654L369.819 54.2033L389.575 47.0821ZM385.954 28.1905L388.073 34.0702L365.495 42.2088L363.376 36.3291L385.954 28.1905Z" fill="black"/>
<path d="M480.174 12.5935L472.52 53.5999L464.39 54.807L474.647 7.28521L479.84 6.51409L480.174 12.5935ZM497.218 49.9325L477.948 12.9239L476.47 7.0144L481.694 6.23869L505.378 48.7207L497.218 49.9325ZM494.09 33.3369L495.004 39.4882L470.522 43.1235L469.609 36.9722L494.09 33.3369Z" fill="black"/>
<path d="M567.562 39.9071L567.656 46.1252L544.814 46.4688L544.721 40.2507L567.562 39.9071ZM546.317 0.941024L547.002 46.4359L539.159 46.5539L538.474 1.05901L546.317 0.941024Z" fill="black"/>
<path d="M624.712 4.61236L619.658 49.8308L611.925 48.9664L616.979 3.748L624.712 4.61236ZM638.905 6.19875L638.211 12.4101L602.217 8.38682L602.911 2.1755L638.905 6.19875Z" fill="black"/>
<path d="M697.838 24.4541L674.92 59.3093L666.956 57.2784L694.794 17.4213L699.881 18.7186L697.838 24.4541ZM699.114 65.4794L695.657 23.8981L696.58 17.8769L701.698 19.1819L707.109 67.5181L699.114 65.4794ZM702.649 48.9656L701.112 54.9915L677.129 48.8754L678.666 42.8496L702.649 48.9656Z" fill="black"/>
<path d="M792.831 83.437L782.188 78.2399L784.917 72.6518L795.56 77.849C797.413 78.754 799.057 79.1858 800.492 79.1444C801.926 79.103 803.161 78.6861 804.197 77.8938C805.261 77.0918 806.127 76.0075 806.794 74.6409C807.425 73.3492 807.743 72.0092 807.749 70.6209C807.783 69.223 807.397 67.8988 806.594 66.6485C805.79 65.3982 804.462 64.3205 802.608 63.4155L794.128 59.2743L776.905 94.5435L769.856 91.1016L789.822 50.2162L805.351 57.7994C808.515 59.3443 810.927 61.2178 812.587 63.4198C814.276 65.6122 815.22 67.9746 815.421 70.507C815.631 73.0207 815.123 75.5319 813.898 78.0404C812.609 80.68 810.923 82.6618 808.839 83.9857C806.755 85.3097 804.352 85.9332 801.631 85.8562C798.928 85.7884 795.995 84.982 792.831 83.437Z" fill="black"/>
<path d="M858.673 87.3974L872.022 96.3869C874.891 98.3186 877.045 100.397 878.485 102.623C879.925 104.848 880.611 107.169 880.542 109.584C880.501 111.993 879.649 114.433 877.985 116.904C876.717 118.788 875.254 120.214 873.597 121.183C871.94 122.151 870.149 122.704 868.224 122.839C866.311 122.957 864.302 122.697 862.196 122.057L859.58 121.689L847.579 113.608L851 108.415L859.995 114.472C861.55 115.519 863.032 116.115 864.441 116.26C865.851 116.406 867.134 116.178 868.293 115.576C869.48 114.969 870.481 114.061 871.296 112.851C872.18 111.538 872.689 110.223 872.822 108.906C872.984 107.584 872.713 106.308 872.008 105.08C871.315 103.835 870.156 102.665 868.531 101.571L861.688 96.9628L839.765 129.519L833.258 125.138L858.673 87.3974ZM854.798 139.643L857.349 116.721L864.184 121.286L861.972 143.984L861.745 144.321L854.798 139.643Z" fill="black"/>
<path d="M916.661 181.988L912.537 186.643L894.456 170.624L898.58 165.969L916.661 181.988ZM926.291 138.039L896.117 172.095L890.246 166.893L920.42 132.837L926.291 138.039ZM927.748 164.715L923.686 169.3L907.968 155.373L912.03 150.789L927.748 164.715ZM942.593 152.484L938.449 157.162L920.485 141.246L924.63 136.568L942.593 152.484Z" fill="black"/>
<path d="M965.706 222.037L970.809 227.952C968.39 229.709 965.835 230.813 963.143 231.265C960.466 231.703 957.786 231.388 955.103 230.319C952.419 229.249 949.88 227.327 947.485 224.551C945.647 222.421 944.372 220.178 943.66 217.821C942.963 215.451 942.792 213.053 943.148 210.627C943.52 208.188 944.428 205.78 945.873 203.405C947.332 201.046 949.3 198.798 951.776 196.661L954.639 194.191C957.116 192.054 959.634 190.445 962.196 189.363C964.771 188.297 967.299 187.767 969.78 187.772C972.277 187.764 974.645 188.293 976.886 189.359C979.14 190.441 981.2 192.062 983.064 194.223C985.432 196.968 986.928 199.722 987.552 202.486C988.175 205.25 988.045 207.921 987.161 210.5C986.29 213.095 984.806 215.504 982.707 217.728L977.603 211.813C978.95 210.376 979.92 208.933 980.514 207.485C981.122 206.052 981.26 204.585 980.927 203.084C980.61 201.569 979.737 199.983 978.308 198.327C977.138 196.97 975.865 196.005 974.489 195.431C973.113 194.857 971.644 194.653 970.081 194.818C968.518 194.984 966.869 195.512 965.134 196.404C963.428 197.297 961.661 198.534 959.831 200.112L956.921 202.623C955.186 204.12 953.738 205.631 952.577 207.156C951.445 208.682 950.647 210.197 950.181 211.699C949.73 213.217 949.657 214.71 949.962 216.181C950.268 217.651 951.019 219.08 952.217 220.468C953.673 222.155 955.118 223.289 956.553 223.867C958.001 224.461 959.469 224.584 960.957 224.235C962.475 223.889 964.057 223.157 965.706 222.037Z" fill="black"/>
<path d="M1021.2 244.897L983.781 270.779L979.32 264.328L1016.74 238.446L1021.2 244.897Z" fill="black"/>
<path d="M1022.5 312.124C1023.32 311.672 1023.98 311.143 1024.47 310.536C1024.98 309.947 1025.33 309.197 1025.52 308.285C1025.71 307.373 1025.74 306.216 1025.61 304.813C1025.51 303.418 1025.24 301.708 1024.82 299.683C1024.36 297.463 1024.04 295.354 1023.87 293.356C1023.73 291.367 1023.81 289.517 1024.1 287.809C1024.42 286.09 1025.01 284.561 1025.89 283.221C1026.79 281.871 1028.06 280.745 1029.71 279.841C1031.33 278.947 1033 278.472 1034.7 278.415C1036.41 278.375 1038.1 278.72 1039.76 279.447C1041.45 280.183 1043.03 281.272 1044.52 282.715C1046.02 284.148 1047.35 285.914 1048.5 288.014C1050.13 290.971 1050.98 293.819 1051.06 296.557C1051.15 299.313 1050.59 301.774 1049.38 303.938C1048.18 306.12 1046.46 307.823 1044.24 309.048L1040.49 302.23C1041.8 301.507 1042.8 300.587 1043.5 299.469C1044.22 298.359 1044.56 297.077 1044.52 295.624C1044.49 294.19 1044.01 292.614 1043.06 290.898C1042.17 289.274 1041.18 288.058 1040.09 287.252C1039.01 286.446 1037.9 286.009 1036.77 285.942C1035.64 285.874 1034.54 286.132 1033.49 286.714C1032.74 287.126 1032.15 287.675 1031.72 288.364C1031.31 289.042 1031.03 289.882 1030.89 290.885C1030.77 291.879 1030.78 293.039 1030.92 294.367C1031.05 295.695 1031.31 297.205 1031.7 298.896C1032.25 301.466 1032.58 303.794 1032.68 305.878C1032.8 307.953 1032.66 309.814 1032.26 311.462C1031.86 313.109 1031.17 314.558 1030.19 315.808C1029.23 317.049 1027.95 318.111 1026.34 318.994C1024.67 319.918 1022.96 320.413 1021.24 320.481C1019.54 320.538 1017.87 320.198 1016.22 319.461C1014.61 318.731 1013.07 317.631 1011.59 316.159C1010.14 314.696 1008.83 312.897 1007.66 310.761C1006.6 308.844 1005.82 306.814 1005.31 304.671C1004.81 302.546 1004.66 300.44 1004.86 298.353C1005.09 296.255 1005.74 294.328 1006.82 292.57C1007.92 290.802 1009.52 289.336 1011.64 288.171L1015.42 295.044C1014.12 295.757 1013.14 296.583 1012.47 297.523C1011.81 298.482 1011.4 299.523 1011.26 300.648C1011.14 301.762 1011.23 302.924 1011.54 304.133C1011.86 305.361 1012.35 306.586 1013.03 307.809C1013.91 309.416 1014.87 310.632 1015.92 311.458C1016.98 312.302 1018.07 312.773 1019.2 312.868C1020.32 312.964 1021.42 312.716 1022.5 312.124Z" fill="black"/>
<path d="M1076.45 364.187L1034.75 365.542L1031.82 357.863L1080.44 357.647L1082.31 362.552L1076.45 364.187ZM1043.65 388.871L1075.64 362.085L1081.1 359.369L1082.98 364.304L1046.59 396.579L1043.65 388.871ZM1059.19 382.243L1053.38 384.46L1044.55 361.335L1050.36 359.119L1059.19 382.243ZM1095.22 363.247L1096.54 367.662C1095.11 368.204 1093.73 368.408 1092.39 368.274C1091.06 368.133 1089.89 367.698 1088.88 366.97C1087.87 366.242 1087.13 365.264 1086.66 364.038C1086.29 363.084 1086.12 362.224 1086.14 361.459C1086.16 360.693 1086.24 359.971 1086.39 359.292C1086.53 358.613 1086.61 357.934 1086.64 357.253C1086.7 356.585 1086.58 355.861 1086.29 355.083C1086 354.343 1085.49 353.814 1084.74 353.497C1084.01 353.198 1083.18 353.224 1082.26 353.573L1080.85 349.162C1082.25 348.628 1083.62 348.427 1084.97 348.561C1086.31 348.695 1087.5 349.122 1088.53 349.843C1089.57 350.564 1090.32 351.538 1090.79 352.764C1091.09 353.562 1091.23 354.334 1091.2 355.08C1091.2 355.839 1091.14 356.577 1091.01 357.294C1090.89 358.031 1090.81 358.763 1090.78 359.49C1090.74 360.217 1090.87 360.96 1091.16 361.719C1091.44 362.459 1091.96 362.984 1092.73 363.294C1093.49 363.604 1094.32 363.589 1095.22 363.247Z" fill="black"/>
<path d="M1089 466.25L1086.56 466.788C1083.21 467.528 1080.1 467.755 1077.24 467.468C1074.38 467.18 1071.84 466.429 1069.61 465.214C1067.38 464.02 1065.52 462.403 1064.03 460.365C1062.55 458.322 1061.51 455.927 1060.91 453.181C1060.3 450.454 1060.24 447.855 1060.72 445.381C1061.23 442.923 1062.23 440.664 1063.74 438.604C1065.25 436.543 1067.23 434.761 1069.7 433.258C1072.17 431.775 1075.08 430.664 1078.43 429.924L1080.88 429.385C1084.23 428.645 1087.33 428.431 1090.17 428.743C1093.04 429.051 1095.58 429.812 1097.81 431.027C1100.07 432.258 1101.93 433.884 1103.4 435.907C1104.9 437.945 1105.94 440.328 1106.55 443.054C1107.15 445.801 1107.2 448.413 1106.71 450.891C1106.23 453.364 1105.22 455.624 1103.69 457.668C1102.17 459.709 1100.18 461.46 1097.71 462.922C1095.26 464.401 1092.36 465.51 1089 466.25ZM1084.87 459.128L1087.38 458.577C1089.86 458.029 1091.99 457.303 1093.78 456.398C1095.58 455.508 1097.03 454.454 1098.1 453.236C1099.2 452.033 1099.93 450.689 1100.29 449.202C1100.66 447.712 1100.66 446.122 1100.29 444.433C1099.92 442.745 1099.25 441.313 1098.29 440.139C1097.34 438.96 1096.12 438.046 1094.61 437.397C1093.13 436.764 1091.38 436.415 1089.36 436.348C1087.36 436.277 1085.11 436.515 1082.63 437.062L1080.13 437.614C1077.65 438.161 1075.5 438.89 1073.7 439.8C1071.9 440.71 1070.43 441.778 1069.32 443.006C1068.23 444.249 1067.49 445.606 1067.11 447.076C1066.75 448.542 1066.76 450.119 1067.13 451.808C1067.51 453.517 1068.17 454.961 1069.11 456.14C1070.07 457.314 1071.31 458.216 1072.81 458.844C1074.33 459.468 1076.1 459.803 1078.12 459.849C1080.14 459.916 1082.39 459.676 1084.87 459.128Z" fill="black"/>
<path d="M1079.06 568.406L1072.85 568.502L1072.47 544.348L1078.69 544.252L1079.06 568.406ZM1118 545.864L1072.51 546.567L1072.39 538.724L1117.88 538.022L1118 545.864ZM1099.3 564.937L1093.17 565.031L1092.85 544.034L1098.97 543.939L1099.3 564.937ZM1118.34 567.643L1112.09 567.74L1111.72 543.742L1117.97 543.646L1118.34 567.643Z" fill="black"/>
<path d="M1067.74 666.133L1056.19 676.137L1052.74 670.304L1064.16 660.498L1067.74 666.133ZM1083.13 681.306L1080.68 680.844C1077.3 680.208 1074.35 679.197 1071.83 677.811C1069.32 676.426 1067.27 674.737 1065.7 672.744C1064.12 670.752 1063.05 668.525 1062.47 666.063C1061.92 663.606 1061.9 660.995 1062.42 658.231C1062.94 655.488 1063.9 653.072 1065.31 650.985C1066.74 648.921 1068.55 647.238 1070.75 645.934C1072.94 644.631 1075.47 643.771 1078.32 643.354C1081.17 642.959 1084.29 643.079 1087.67 643.715L1090.12 644.178C1093.5 644.814 1096.44 645.833 1098.93 647.235C1101.44 648.641 1103.49 650.34 1105.06 652.332C1106.65 654.349 1107.73 656.576 1108.29 659.013C1108.86 661.475 1108.89 664.077 1108.37 666.821C1107.85 669.585 1106.88 672.008 1105.45 674.092C1104.03 676.2 1102.22 677.894 1100.01 679.173C1097.81 680.456 1095.29 681.286 1092.45 681.661C1089.62 682.061 1086.51 681.942 1083.13 681.306ZM1082.13 673.105L1084.65 673.579C1087.15 674.049 1089.4 674.218 1091.39 674.085C1093.41 673.977 1095.15 673.573 1096.61 672.874C1098.1 672.199 1099.29 671.248 1100.2 670.02C1101.13 668.817 1101.76 667.355 1102.08 665.635C1102.4 663.956 1102.34 662.388 1101.92 660.93C1101.51 659.476 1100.74 658.155 1099.61 656.966C1098.5 655.781 1097.02 654.762 1095.19 653.908C1093.38 653.059 1091.23 652.398 1088.73 651.928L1086.21 651.454C1083.71 650.984 1081.46 650.813 1079.44 650.942C1077.42 651.071 1075.66 651.481 1074.15 652.172C1072.66 652.888 1071.45 653.847 1070.52 655.051C1069.61 656.279 1069 657.732 1068.69 659.411C1068.36 661.131 1068.4 662.718 1068.81 664.172C1069.23 665.63 1070.01 666.943 1071.15 668.111C1072.31 669.283 1073.8 670.285 1075.64 671.118C1077.47 671.972 1079.64 672.634 1082.13 673.105Z" fill="black"/>
<path d="M1083.95 752.194L1081.4 759.58L1052.66 749.668C1049.39 748.541 1046.9 746.888 1045.18 744.71C1043.46 742.531 1042.46 740.027 1042.18 737.198C1041.91 734.395 1042.3 731.496 1043.33 728.503C1044.4 725.411 1045.9 722.843 1047.84 720.801C1049.79 718.766 1052.12 717.429 1054.8 716.791C1057.49 716.173 1060.46 716.428 1063.73 717.555L1092.48 727.466L1089.93 734.852L1061.18 724.941C1059.12 724.228 1057.29 723.995 1055.71 724.242C1054.14 724.496 1052.82 725.164 1051.74 726.247C1050.66 727.33 1049.82 728.757 1049.21 730.53C1048.6 732.302 1048.39 733.937 1048.57 735.435C1048.76 736.952 1049.39 738.293 1050.46 739.457C1051.56 740.628 1053.14 741.57 1055.2 742.283L1083.95 752.194Z" fill="black"/>
<path d="M1050.1 813.707L1021.24 783.584L1025 776.275L1057.63 812.311L1055.23 816.98L1050.1 813.707ZM1009.82 805.789L1051.13 811.706L1056.79 813.95L1054.37 818.647L1006.05 813.126L1009.82 805.789ZM1025.13 812.922L1019.6 810.079L1030.92 788.068L1036.45 790.912L1025.13 812.922Z" fill="black"/>
<path d="M976.961 868.789L971.854 865.24L984.89 846.481L989.997 850.03L976.961 868.789ZM1021.01 874.242L983.642 848.278L988.118 841.836L1025.48 867.801L1021.01 874.242Z" fill="black"/>
<path d="M982.947 923.814L948.252 894.378L953.326 888.397L988.022 917.833L982.947 923.814Z" fill="black"/>
<path d="M912.886 931.477L919.927 924.778L924.168 929.327L917.172 935.983C915.134 937.921 913.852 939.989 913.325 942.186C912.784 944.398 912.956 946.664 913.841 948.985C914.711 951.32 916.237 953.635 918.42 955.929L920.121 957.718C921.816 959.499 923.52 960.883 925.234 961.869C926.933 962.869 928.62 963.464 930.296 963.653C931.956 963.857 933.581 963.661 935.173 963.068C936.75 962.488 938.27 961.502 939.734 960.109L947.115 953.087L951.423 957.616L944.042 964.637C941.853 966.719 939.501 968.252 936.986 969.236C934.486 970.234 931.925 970.671 929.306 970.547C926.671 970.437 924.087 969.761 921.553 968.519C919.02 967.276 916.627 965.47 914.372 963.101L912.714 961.357C910.46 958.987 908.775 956.506 907.661 953.914C906.547 951.323 906.001 948.708 906.022 946.071C906.059 943.449 906.645 940.892 907.783 938.401C908.921 935.939 910.621 933.631 912.886 931.477ZM948.14 960.739L916.78 927.772L922.463 922.366L953.823 955.333L948.14 960.739Z" fill="black"/>
<path d="M877.985 1010.98L866.233 970.951L872.934 966.192L885.317 1013.2L881.037 1016.24L877.985 1010.98ZM845.876 985.408L879.82 1009.67L883.814 1014.27L879.508 1017.33L839.15 990.185L845.876 985.408ZM856.182 998.787L852.581 993.716L872.76 979.386L876.361 984.456L856.182 998.787Z" fill="black"/>
<path d="M793.66 1016L802.304 1011.56L805.091 1017.12L796.502 1021.54C794 1022.82 792.187 1024.44 791.063 1026.4C789.92 1028.37 789.446 1030.59 789.641 1033.07C789.817 1035.56 790.629 1038.21 792.076 1041.02L793.204 1043.22C794.328 1045.41 795.573 1047.22 796.939 1048.64C798.288 1050.08 799.739 1051.13 801.292 1051.78C802.828 1052.45 804.443 1052.72 806.137 1052.6C807.813 1052.49 809.55 1051.97 811.347 1051.04L820.409 1046.39L823.265 1051.95L814.204 1056.6C811.517 1057.98 808.828 1058.79 806.138 1059.03C803.457 1059.28 800.878 1058.98 798.399 1058.12C795.902 1057.27 793.613 1055.89 791.533 1053.99C789.453 1052.08 787.666 1049.67 786.171 1046.76L785.071 1044.62C783.577 1041.71 782.66 1038.86 782.322 1036.06C781.984 1033.26 782.197 1030.6 782.961 1028.07C783.735 1025.57 785.019 1023.28 786.813 1021.21C788.598 1019.17 790.88 1017.43 793.66 1016ZM819.235 1054.02L798.441 1013.55L805.418 1009.96L826.211 1050.43L819.235 1054.02Z" fill="black"/>
<path d="M717.06 1054.58L714.981 1048.71L737.749 1040.64L739.827 1046.5L717.06 1054.58ZM750.863 1084.27L735.657 1041.38L743.05 1038.76L758.256 1081.65L750.863 1084.27ZM726.812 1072.64L724.765 1066.86L744.558 1059.85L746.605 1065.62L726.812 1072.64ZM730.334 1091.55L728.246 1085.66L750.866 1077.64L752.955 1083.53L730.334 1091.55Z" fill="black"/>
<circle cx="572" cy="1092" r="17" fill="black"/>
</svg>
