<svg width="770" height="756" viewBox="0 0 770 756" fill="none" xmlns="http://www.w3.org/2000/svg">
<path d="M312.011 725.5L323.456 727.536L322.456 733.516L312.641 731.77C310.959 731.471 309.512 731.457 308.3 731.728C307.088 731.999 306.115 732.535 305.38 733.335C304.625 734.132 304.132 735.176 303.902 736.469C303.647 737.904 303.716 739.123 304.109 740.124C304.482 741.121 305.206 741.927 306.282 742.542C307.354 743.177 308.772 743.651 310.536 743.965L317.489 745.202L324.27 707.081L332.731 708.586L324.762 753.383L309.348 750.641C306.805 750.189 304.582 749.54 302.68 748.694C300.754 747.864 299.183 746.823 297.967 745.57C296.751 744.317 295.919 742.867 295.471 741.222C295.002 739.573 294.954 737.702 295.326 735.61C295.655 733.764 296.388 732.138 297.527 730.732C298.642 729.344 300.167 728.324 302.102 727.674C304.017 727.02 306.331 726.86 309.043 727.194L312.011 725.5ZM315.932 705.598L329.5 708.012L324.78 714.028L314.75 712.244C313.068 711.945 311.634 711.975 310.448 712.336C309.242 712.693 308.287 713.306 307.582 714.175C306.853 715.061 306.376 716.14 306.149 717.411C305.901 718.806 305.932 720.06 306.242 721.173C306.531 722.283 307.15 723.207 308.097 723.947C309.024 724.684 310.329 725.201 312.011 725.5L320.81 727.066L319.687 733.023L308.488 731.031L306.96 728.379C304.379 727.899 302.368 727.012 300.926 725.719C299.464 724.422 298.484 722.914 297.985 721.196C297.487 719.478 297.4 717.707 297.725 715.881C298.235 713.01 299.29 710.711 300.887 708.985C302.465 707.255 304.531 706.11 307.085 705.548C309.619 704.983 312.568 705 315.932 705.598Z" fill="black"/>
<path d="M274.215 742.295L286.076 698.369L294.372 700.609L282.512 744.536L274.215 742.295Z" fill="black"/>
<path d="M252.292 735.15L267.954 692.431L276.023 695.389L260.36 738.109L252.292 735.15ZM226.648 725.749L251.421 711.199L265.061 704.318L263.626 712.679L253.581 719.014L236.536 729.374L226.648 725.749ZM251.289 686.321L257.244 711.204L249.549 714.307L241.695 682.804L251.289 686.321Z" fill="black"/>
<path d="M208.927 682.193L201.281 678.269C202.874 675.668 204.857 673.653 207.229 672.224C209.592 670.814 212.236 670.111 215.162 670.114C218.087 670.116 221.2 670.964 224.499 672.658C227.038 673.961 229.099 675.581 230.681 677.517C232.235 679.462 233.307 681.639 233.897 684.049C234.458 686.469 234.515 689.05 234.067 691.794C233.609 694.557 232.624 697.411 231.111 700.358L229.528 703.444C228.015 706.391 226.261 708.851 224.265 710.824C222.269 712.797 220.12 714.247 217.818 715.173C215.488 716.108 213.07 716.506 210.565 716.368C208.042 716.221 205.511 715.495 202.971 714.192C199.672 712.499 197.197 710.455 195.545 708.062C193.883 705.687 192.965 703.12 192.789 700.36C192.613 697.6 193.099 694.782 194.247 691.906L201.893 695.83C201.166 697.611 200.795 699.247 200.779 700.738C200.745 702.219 201.155 703.565 202.008 704.776C202.834 705.996 204.201 707.096 206.111 708.075C207.593 708.836 209.043 709.229 210.459 709.253C211.856 709.268 213.211 708.91 214.523 708.178C215.826 707.465 217.086 706.379 218.303 704.919C219.511 703.479 220.667 701.683 221.77 699.533L223.382 696.392C224.438 694.334 225.218 692.404 225.722 690.602C226.225 688.8 226.415 687.153 226.291 685.66C226.167 684.168 225.701 682.84 224.893 681.677C224.085 680.513 222.912 679.536 221.374 678.746C219.502 677.786 217.83 677.302 216.358 677.296C214.867 677.28 213.521 677.69 212.32 678.525C211.1 679.351 209.969 680.574 208.927 682.193Z" fill="black"/>
<path d="M176.852 698.452L163.165 689.181C160.302 687.241 158.136 685.145 156.667 682.893C155.199 680.64 154.485 678.294 154.526 675.856C154.567 673.418 155.423 670.966 157.094 668.499C158.414 666.55 159.904 665.093 161.564 664.129C163.223 663.165 165.01 662.626 166.923 662.513C168.82 662.388 170.8 662.622 172.864 663.215L175.86 663.584L187.943 671.768L184.192 677.418L175.162 671.301C173.696 670.308 172.305 669.743 170.988 669.607C169.672 669.47 168.463 669.695 167.36 670.282C166.241 670.857 165.284 671.732 164.489 672.904C163.637 674.164 163.142 675.414 163.006 676.655C162.858 677.914 163.106 679.126 163.75 680.292C164.395 681.459 165.467 682.55 166.968 683.566L173.54 688.018L195.253 655.961L202.369 660.78L176.852 698.452ZM181.101 646.374L178.394 669.15L170.847 664.076L173.223 641.567L173.468 641.204L181.101 646.374Z" fill="black"/>
<path d="M132.307 655.98L167.368 635.283L174.245 641.233L131.616 664.515L127.221 660.712L132.307 655.98ZM149.361 619.701L133.961 657.412L130.033 663.145L125.614 659.321L142.461 613.73L149.361 619.701ZM138.748 632.874L143.185 627.746L161.641 643.716L157.203 648.844L138.748 632.874Z" fill="black"/>
<path d="M102.246 636.049L135.765 605.28L141.576 611.611L108.058 642.38L102.246 636.049ZM104.321 609.244L109.317 604.658L123.243 619.829L118.248 624.414L104.321 609.244ZM88.2139 620.763L93.2095 616.178L108.763 633.121L103.768 637.707L88.2139 620.763Z" fill="black"/>
<path d="M69.5318 595.558L106.269 568.713L111.321 575.627L74.5837 602.471L69.5318 595.558ZM61.1982 584.153L66.6734 580.152L88.3004 609.749L82.8252 613.75L61.1982 584.153Z" fill="black"/>
<path d="M60.1316 528.893L65.2307 539.34L59.8099 542.055L55.4373 533.097C54.688 531.561 53.8467 530.384 52.9135 529.565C51.9803 528.745 50.9738 528.274 49.8942 528.152C48.8054 528.011 47.6713 528.229 46.4918 528.804C45.1812 529.444 44.2374 530.218 43.6604 531.125C43.0742 532.014 42.8497 533.074 42.987 534.305C43.1056 535.546 43.5578 536.971 44.3437 538.581L47.4415 544.928L82.2368 527.944L86.0063 535.667L45.117 555.625L38.2496 541.555C37.1165 539.234 36.3314 537.055 35.8943 535.02C35.4294 532.975 35.3449 531.092 35.6409 529.371C35.9369 527.65 36.6177 526.124 37.6833 524.793C38.7398 523.442 40.2229 522.301 42.1325 521.369C43.8175 520.547 45.5634 520.181 47.3701 520.273C49.1489 520.356 50.8712 520.987 52.537 522.168C54.1937 523.329 55.6862 525.105 57.0143 527.493L60.1316 528.893ZM78.5221 520.334L84.567 532.719L76.9247 532.45L72.4561 523.295C71.7068 521.759 70.8372 520.619 69.8474 519.874C68.8484 519.109 67.7902 518.698 66.6726 518.641C65.5273 518.574 64.3742 518.824 63.2134 519.391C61.9403 520.012 60.9453 520.776 60.2285 521.682C59.5026 522.57 59.1199 523.614 59.0804 524.816C59.0319 525.999 59.3822 527.358 60.1316 528.893L64.0518 536.925L58.5762 539.528L53.5868 529.305L54.8295 526.508C53.6968 524.14 53.2282 521.993 53.4237 520.066C53.61 518.12 54.2504 516.44 55.3447 515.025C56.4391 513.61 57.8194 512.495 59.4857 511.682C62.1068 510.403 64.5854 509.9 66.9214 510.174C69.2483 510.429 71.3911 511.423 73.3498 513.157C75.2994 514.871 77.0235 517.263 78.5221 520.334Z" fill="black"/>
<path d="M24.2913 508.251L66.7714 491.951L69.8501 499.975L27.37 516.275L24.2913 508.251Z" fill="black"/>
<path d="M41.5608 460.42L39.2362 452.147C42.2265 451.545 45.052 451.627 47.7129 452.395C50.3537 453.167 52.6682 454.627 54.6562 456.773C56.6443 458.92 58.1398 461.778 59.1429 465.348C59.915 468.096 60.1296 470.708 59.7868 473.185C59.4182 475.647 58.5512 477.914 57.1857 479.986C55.7944 482.043 53.9407 483.841 51.6246 485.379C49.2884 486.922 46.5258 488.142 43.3368 489.038L39.9973 489.976C36.8083 490.872 33.8118 491.26 31.0079 491.139C28.204 491.018 25.6797 490.429 23.435 489.371C21.1647 488.3 19.2281 486.799 17.6255 484.869C16.0172 482.919 14.827 480.57 14.0549 477.822C13.0519 474.252 12.8656 471.047 13.4962 468.208C14.1067 465.375 15.3636 462.955 17.2669 460.949C19.1701 458.943 21.5665 457.382 24.456 456.267L26.7806 464.541C24.9805 465.22 23.5287 466.06 22.4254 467.063C21.3165 468.045 20.6086 469.261 20.3018 470.711C19.9693 472.146 20.0932 473.896 20.6737 475.962C21.1245 477.567 21.8226 478.896 22.7681 479.951C23.7079 480.985 24.8922 481.734 26.321 482.198C27.7298 482.668 29.3831 482.853 31.2808 482.752C33.1585 482.658 35.2606 482.283 37.5872 481.63L40.9868 480.675C43.2131 480.049 45.158 479.308 46.8216 478.451C48.4851 477.594 49.8216 476.612 50.8309 475.507C51.8402 474.401 52.4967 473.156 52.8004 471.772C53.1041 470.388 53.0221 468.864 52.5543 467.199C51.9851 465.174 51.2021 463.619 50.2053 462.536C49.2028 461.433 47.9868 460.725 46.5574 460.412C45.1222 460.08 43.4567 460.083 41.5608 460.42Z" fill="black"/>
<path d="M6.66715 440.746L51.4203 432.536L52.971 440.989L8.21782 449.199L6.66715 440.746Z" fill="black"/>
<path d="M32.438 396.907L31.6745 388.347C34.7245 388.305 37.4867 388.906 39.9612 390.149C42.4148 391.395 44.4214 393.255 45.9808 395.73C47.5402 398.206 48.4847 401.29 48.8141 404.984C49.0677 407.827 48.7983 410.434 48.0058 412.806C47.1908 415.158 45.9217 417.227 44.1984 419.012C42.4526 420.778 40.3 422.204 37.7405 423.29C35.1603 424.378 32.2204 425.069 28.921 425.363L25.466 425.671C22.1666 425.966 19.15 425.796 16.4161 425.161C13.6823 424.526 11.3093 423.483 9.29739 422.031C7.26283 420.56 5.63535 418.729 4.41496 416.537C3.19271 414.324 2.45479 411.796 2.20122 408.954C1.87176 405.26 2.27797 402.076 3.41987 399.401C4.54102 396.729 6.22147 394.581 8.46122 392.959C10.701 391.337 13.3434 390.244 16.3887 389.679L17.1522 398.239C15.2579 398.575 13.6763 399.135 12.4075 399.917C11.1368 400.679 10.2174 401.744 9.64923 403.112C9.05845 404.462 8.85839 406.205 9.04903 408.343C9.19711 410.003 9.63886 411.438 10.3743 412.648C11.1079 413.838 12.1342 414.792 13.4533 415.511C14.7517 416.232 16.3428 416.717 18.2266 416.968C20.0897 417.22 22.2248 417.239 24.6319 417.024L28.1492 416.71C30.4526 416.505 32.5006 416.134 34.2934 415.597C36.0862 415.061 37.5803 414.342 38.7758 413.441C39.9712 412.539 40.8454 411.436 41.3984 410.132C41.9514 408.828 42.1511 407.314 41.9974 405.592C41.8105 403.496 41.3267 401.824 40.5461 400.576C39.7636 399.307 38.6985 398.388 37.3509 397.818C36.0014 397.227 34.3638 396.923 32.438 396.907Z" fill="black"/>
<path d="M41.103 351.011L47.8508 351.185L47.2599 374.053L40.5121 373.878L41.103 351.011ZM1.84207 370.284L47.3269 371.46L47.1049 380.051L1.62008 378.875L1.84207 370.284Z" fill="black"/>
<path d="M46.0014 315.353L52.6935 316.235L49.5324 340.215L42.8403 339.333L46.0014 315.353ZM4.76573 331.666L49.8755 337.613L48.7524 346.133L3.64261 340.186L4.76573 331.666ZM25.7914 315.873L32.3286 316.734L29.58 337.585L23.0428 336.723L25.7914 315.873ZM7.57146 310.382L14.2946 311.268L11.1458 335.155L4.42267 334.269L7.57146 310.382Z" fill="black"/>
<path d="M14.8098 280.589L58.9767 291.523L56.9191 299.834L12.7523 288.901L14.8098 280.589ZM18.204 266.878L24.7866 268.507L15.9782 304.09L9.39564 302.46L18.204 266.878Z" fill="black"/>
<path d="M34.5869 243.074L66.1212 268.828L62.9121 277.337L26.3385 245.374L28.3896 239.936L34.5869 243.074ZM74.5244 246.548L33.8149 245.121L27.0773 243.415L29.1395 237.947L77.7445 238.01L74.5244 246.548ZM58.4962 241.137L64.8412 243.53L56.2285 266.366L49.8836 263.973L58.4962 241.137Z" fill="black"/>
<path d="M79.9067 209.802C79.13 209.399 78.3742 209.159 77.6392 209.083C76.8953 208.979 76.1154 209.102 75.2995 209.453C74.4747 209.776 73.5388 210.359 72.4919 211.2C71.4361 212.014 70.1986 213.132 68.7796 214.555C67.2091 216.134 65.6319 217.545 64.0478 218.789C62.4637 220.032 60.8602 221.019 59.2373 221.75C57.6239 222.462 56.0017 222.829 54.3707 222.851C52.7213 222.863 51.0459 222.428 49.3446 221.545C47.6803 220.682 46.3463 219.544 45.3425 218.131C44.3483 216.7 43.7018 215.073 43.4029 213.252C43.0856 211.421 43.1194 209.478 43.5043 207.425C43.8988 205.353 44.6573 203.235 45.78 201.072C47.3344 198.076 49.2233 195.77 51.4465 194.154C53.6794 192.52 56.0415 191.586 58.5329 191.353C61.0243 191.12 63.435 191.608 65.765 192.817L61.8214 200.418C60.5639 199.765 59.3153 199.458 58.0754 199.495C56.8452 199.514 55.6744 199.915 54.5631 200.7C53.4614 201.466 52.4932 202.654 51.6584 204.263C50.8524 205.816 50.4118 207.23 50.3368 208.506C50.2714 209.763 50.5019 210.856 51.0284 211.787C51.5645 212.699 52.3226 213.409 53.3027 213.917C54.0423 214.301 54.7992 214.471 55.5733 214.427C56.3288 214.373 57.1478 214.129 58.0302 213.695C58.8941 213.251 59.8167 212.627 60.7978 211.821C61.7701 210.988 62.8287 209.988 63.9736 208.822C65.7908 206.948 67.538 205.391 69.2152 204.149C70.902 202.888 72.5511 201.972 74.1623 201.399C75.7832 200.809 77.3848 200.572 78.9671 200.689C80.559 200.787 82.1779 201.263 83.8237 202.117C85.5619 203.019 86.9377 204.167 87.9511 205.562C88.9645 206.956 89.621 208.54 89.9205 210.315C90.22 212.09 90.154 214.004 89.7226 216.057C89.3007 218.091 88.5189 220.209 87.377 222.409C86.3599 224.369 85.0935 226.177 83.5779 227.831C82.0533 229.458 80.361 230.774 78.5009 231.78C76.6224 232.777 74.6295 233.316 72.5225 233.396C70.3969 233.467 68.2339 232.931 66.0333 231.789L70.0057 224.133C71.2817 224.796 72.4783 225.158 73.5955 225.222C74.7038 225.257 75.7413 225.044 76.7079 224.583C77.6657 224.095 78.5427 223.4 79.3389 222.498C80.1352 221.597 80.8451 220.546 81.4688 219.344C82.2748 217.79 82.7242 216.404 82.8171 215.185C82.901 213.937 82.6841 212.862 82.1665 211.96C81.6585 211.039 80.9053 210.32 79.9067 209.802Z" fill="black"/>
<path d="M121.886 158.214L127.256 162.303L112.602 181.547L107.232 177.457L121.886 158.214ZM77.9939 151.892L114.193 179.458L108.986 186.295L72.7874 158.729L77.9939 151.892ZM104.087 148.627L109.333 152.622L96.5914 169.354L91.3455 165.359L104.087 148.627ZM91.0008 134.812L96.3958 138.92L81.7986 158.089L76.4036 153.98L91.0008 134.812Z" fill="black"/>
<path d="M146.359 132.591L151.269 137.222L135.576 153.865L130.665 149.234L146.359 132.591ZM104.252 120.762L137.355 151.978L131.459 158.23L98.3562 127.014L104.252 120.762Z" fill="black"/>
<path d="M173.793 109.293L178.19 114.414L159.84 130.171L155.442 125.05L173.793 109.293ZM132.19 93.9408L161.831 128.461L155.311 134.06L125.67 99.5393L132.19 93.9408ZM158.39 96.199L162.685 101.202L146.729 114.903L142.434 109.9L158.39 96.199ZM148.478 79.9549L152.896 85.0997L134.616 100.796L130.198 95.6509L148.478 79.9549ZM132.427 89.9478L130.885 78.7501L137.808 72.8055L137.525 85.5708L132.427 89.9478Z" fill="black"/>
<path d="M173.744 62.5869L199.356 100.194L192.279 105.014L166.667 67.4068L173.744 62.5869ZM185.418 54.6359L189.236 60.2408L158.938 80.8747L155.121 75.2699L185.418 54.6359Z" fill="black"/>
<path d="M194.099 50.1852L208.739 42.506C211.801 40.8996 214.672 39.9817 217.352 39.7525C220.031 39.5234 222.435 40.0031 224.564 41.1917C226.694 42.3804 228.45 44.2938 229.834 46.9321C230.928 49.0168 231.507 51.0184 231.572 52.9368C231.638 54.8552 231.268 56.6842 230.463 58.4238C229.677 60.1537 228.534 61.7881 227.036 63.3269L225.295 65.7929L212.371 72.5721L209.166 66.5959L218.824 61.5297C220.392 60.7071 221.547 59.7481 222.29 58.6527C223.033 57.5572 223.406 56.3851 223.41 55.1364C223.432 53.8779 223.114 52.6214 222.456 51.3669C221.75 50.0201 220.882 48.9933 219.852 48.2864C218.813 47.5612 217.627 47.2068 216.295 47.2234C214.963 47.24 213.494 47.6693 211.889 48.5112L204.86 52.1984L222.846 86.4862L215.235 90.4782L194.099 50.1852ZM237.983 78.5457L219.192 65.3944L227.231 61.1425L245.944 73.8759L246.147 74.2633L237.983 78.5457Z" fill="black"/>
<path d="M239.846 28.448L257.439 70.4092L249.514 73.732L231.921 31.7709L239.846 28.448Z" fill="black"/>
<path d="M288.183 44.2452L296.382 41.6684C297.075 44.6388 297.079 47.4656 296.394 50.1487C295.702 52.8119 294.314 55.17 292.23 57.2228C290.145 59.2756 287.334 60.858 283.796 61.9699C281.073 62.8257 278.469 63.1202 275.983 62.8533C273.51 62.5604 271.218 61.7632 269.106 60.4617C267.007 59.1341 265.153 57.3363 263.545 55.0683C261.931 52.7804 260.627 50.0565 259.634 46.8964L258.593 43.5872C257.6 40.4271 257.121 37.4439 257.156 34.6376C257.192 31.8313 257.703 29.2901 258.691 27.0141C259.693 24.712 261.134 22.7305 263.014 21.0695C264.914 19.4022 267.225 18.1407 269.948 17.2849C273.486 16.173 276.683 15.8887 279.54 16.4321C282.391 16.9556 284.848 18.1379 286.911 19.9788C288.975 21.8198 290.608 24.1672 291.811 27.0212L283.613 29.598C282.879 27.8195 281.994 26.3942 280.958 25.3221C279.942 24.2438 278.705 23.5735 277.247 23.3111C275.802 23.0227 274.057 23.2002 272.01 23.8436C270.42 24.3433 269.112 25.0818 268.087 26.0591C267.082 27.0302 266.369 28.2369 265.949 29.6792C265.523 31.1017 265.389 32.7599 265.547 34.6536C265.699 36.5276 266.138 38.6172 266.863 40.9227L267.921 44.2915C268.615 46.4976 269.415 48.4189 270.323 50.0554C271.23 51.692 272.252 52.9977 273.388 53.9727C274.525 54.9477 275.789 55.5658 277.181 55.827C278.574 56.0882 280.095 55.9595 281.744 55.4411C283.752 54.8101 285.281 53.9799 286.334 52.9504C287.406 51.9146 288.076 50.6775 288.345 49.2391C288.633 47.7945 288.579 46.1298 288.183 44.2452Z" fill="black"/>
<path d="M318.828 13.6226L312.985 53.9156L304.039 55.5452L312.61 7.73534L318.329 6.69378L318.828 13.6226ZM336.412 49.6486L316.676 14.0146L314.67 7.36016L320.419 6.313L345.39 48.0135L336.412 49.6486ZM332.799 33.1224L334.014 39.7939L310.003 44.1673L308.788 37.4958L332.799 33.1224Z" fill="black"/>
<path d="M370.685 35.3445C370.631 34.4712 370.447 33.6999 370.134 33.0306C369.84 32.3391 369.333 31.7341 368.612 31.2154C367.91 30.6746 366.929 30.1721 365.669 29.7079C364.428 29.2215 362.832 28.7364 360.882 28.2525C358.719 27.7192 356.697 27.0936 354.816 26.3758C352.934 25.658 351.263 24.7915 349.801 23.7762C348.36 22.7596 347.21 21.5579 346.351 20.1711C345.491 18.7635 345.002 17.1032 344.883 15.1902C344.766 13.3188 345.055 11.5892 345.749 10.0013C346.465 8.41216 347.526 7.0206 348.934 5.82665C350.34 4.6119 352.023 3.64089 353.981 2.91361C355.961 2.18503 358.167 1.74501 360.599 1.59354C363.968 1.38382 366.917 1.81597 369.447 2.89C371.998 3.96273 374.014 5.50707 375.497 7.52302C376.979 9.53897 377.802 11.8569 377.965 14.4768L369.419 15.0089C369.331 13.595 368.952 12.3662 368.281 11.3225C367.632 10.2775 366.685 9.48065 365.44 8.93194C364.216 8.38194 362.699 8.16326 360.89 8.27589C359.144 8.38463 357.704 8.73517 356.572 9.32749C355.461 9.91852 354.642 10.6792 354.116 11.6096C353.61 12.5386 353.391 13.5542 353.46 14.6562C353.512 15.4879 353.756 16.2242 354.192 16.865C354.628 17.4849 355.258 18.0614 356.085 18.5945C356.91 19.1067 357.92 19.576 359.116 20.0026C360.331 20.407 361.733 20.7998 363.322 21.181C365.864 21.7742 368.099 22.47 370.027 23.2683C371.976 24.0654 373.611 25.0073 374.931 26.0941C376.272 27.1795 377.299 28.4306 378.014 29.8472C378.749 31.2626 379.174 32.8956 379.289 34.7462C379.411 36.7007 379.135 38.4713 378.462 40.0579C377.788 41.6445 376.768 43.0231 375.4 44.1936C374.033 45.3642 372.358 46.293 370.376 46.98C368.415 47.6657 366.197 48.0855 363.723 48.2396C361.519 48.3768 359.317 48.2217 357.119 47.7741C354.939 47.3044 352.94 46.5314 351.119 45.4549C349.298 44.3577 347.81 42.9265 346.656 41.1615C345.501 39.3756 344.847 37.2455 344.693 34.7711L353.301 34.2351C353.391 35.6699 353.696 36.8824 354.217 37.8728C354.757 38.8411 355.473 39.621 356.366 40.2125C357.278 40.7819 358.326 41.1759 359.508 41.3945C360.691 41.6131 361.958 41.6804 363.309 41.5962C365.056 41.4875 366.476 41.159 367.569 40.6109C368.681 40.0406 369.491 39.3014 369.998 38.3931C370.526 37.4836 370.755 36.4674 370.685 35.3445Z" fill="black"/>
<path d="M419.495 49.7031L409.752 48.5326L410.619 41.8382L420.3 43.0013C422.927 43.317 425.199 43.0025 427.117 42.0579C429.038 41.0926 430.585 39.5684 431.758 37.4851C432.934 35.3813 433.708 32.7883 434.078 29.7063L434.357 27.3793C434.643 25.0006 434.637 22.87 434.339 20.9876C434.04 19.1053 433.459 17.4827 432.594 16.1198C431.751 14.7594 430.633 13.6704 429.241 12.8527C427.85 12.0351 426.203 11.5119 424.3 11.2832L414.185 10.0679L414.994 3.33511L425.109 4.55042C428.129 4.91328 430.819 5.75059 433.179 7.06237C435.56 8.37664 437.546 10.0946 439.138 12.2163C440.753 14.3198 441.888 16.7434 442.545 19.4871C443.222 22.2334 443.366 25.2302 442.976 28.4777L442.703 30.7427C442.316 33.9695 441.466 36.847 440.155 39.3754C438.868 41.8855 437.19 43.9711 435.123 45.6322C433.077 47.2958 430.731 48.4828 428.085 49.1931C425.44 49.9034 422.577 50.0734 419.495 49.7031ZM419.958 3.93158L414.53 49.1067L405.998 48.0815L411.426 2.9064L419.958 3.93158Z" fill="black"/>
<path d="M478.636 54.7551L477.047 61.3155L453.539 55.6233L455.128 49.0629L478.636 54.7551ZM466.798 12.019L456.09 56.2411L447.738 54.2187L458.446 9.99655L466.798 12.019ZM480.268 34.6044L478.716 41.0129L458.275 36.0635L459.827 29.655L480.268 34.6044ZM487.664 17.0713L486.068 23.6621L462.651 17.992L464.247 11.4012L487.664 17.0713Z" fill="black"/>
<path d="M533.672 42.2357L506.305 72.3809L497.976 68.7315L531.807 33.8783L537.131 36.211L533.672 42.2357ZM528.116 81.9371L531.668 41.3578L533.724 34.7186L539.077 37.0637L536.474 85.599L528.116 81.9371ZM534.357 66.2136L531.636 72.4249L509.281 62.6304L512.002 56.4192L534.357 66.2136Z" fill="black"/>
<path d="M566.253 95.9769L562.873 101.819L543.073 90.363L546.454 84.5205L566.253 95.9769ZM568.106 52.2796L545.318 91.662L537.88 87.358L560.668 47.9756L568.106 52.2796Z" fill="black"/>
<path d="M609.609 79.9035L582.694 116.589L575.79 111.524L602.705 74.8384L609.609 79.9035ZM620.998 88.2591L616.986 93.7266L587.431 72.0429L591.443 66.5753L620.998 88.2591Z" fill="black"/>
<path d="M636.778 112.466L600.963 131.831L594.315 125.626L637.789 103.963L642.039 107.929L636.778 112.466ZM618.371 148.079L635.179 110.974L639.32 105.392L643.592 109.379L625.042 154.305L618.371 148.079ZM629.473 135.315L624.846 140.272L607.004 123.619L611.631 118.661L629.473 135.315Z" fill="black"/>
<path d="M662.727 175.909L655.717 166.519L661.126 162.481L668.136 171.872C669.283 173.407 670.462 174.464 671.673 175.042C672.913 175.624 674.144 175.81 675.365 175.6C676.603 175.378 677.798 174.837 678.95 173.977C680.069 173.142 680.944 172.138 681.576 170.964C682.207 169.79 682.462 168.495 682.341 167.078C682.231 165.678 681.603 164.21 680.457 162.674L675.129 155.537L644.102 178.699L638.961 171.813L675.422 144.594L685.891 158.617C688.009 161.455 689.307 164.256 689.784 167.02C690.291 169.788 690.043 172.364 689.042 174.749C688.07 177.139 686.449 179.181 684.178 180.876C681.825 182.633 679.397 183.613 676.897 183.816C674.409 184.036 671.952 183.478 669.526 182.143C667.112 180.826 664.846 178.748 662.727 175.909Z" fill="black"/>
<path d="M700.378 180.044L708.685 194.337C710.423 197.327 711.464 200.155 711.81 202.822C712.155 205.489 711.78 207.912 710.684 210.09C709.589 212.269 707.754 214.107 705.178 215.604C703.143 216.787 701.168 217.452 699.254 217.601C697.341 217.749 695.497 217.459 693.724 216.73C691.962 216.02 690.28 214.949 688.677 213.519L686.138 211.887L678.805 199.269L684.636 195.807L690.117 205.237C691.007 206.768 692.015 207.881 693.141 208.575C694.268 209.27 695.455 209.592 696.703 209.542C697.961 209.509 699.203 209.137 700.427 208.425C701.742 207.661 702.731 206.749 703.392 205.69C704.072 204.62 704.374 203.42 704.3 202.09C704.226 200.76 703.733 199.311 702.822 197.744L698.834 190.881L665.358 210.337L661.04 202.907L700.378 180.044ZM673.947 225.116L686.272 205.773L690.868 213.619L678.958 232.867L678.58 233.087L673.947 225.116Z" fill="black"/>
<path d="M697.689 261.163L691.512 263.883L681.762 241.748L687.94 239.027L697.689 261.163ZM724.461 225.81L682.82 244.15L679.357 236.285L720.997 217.946L724.461 225.81ZM714.692 250.225L708.657 252.883L700.18 233.636L706.215 230.978L714.692 250.225ZM733.114 245.458L726.908 248.191L717.197 226.141L723.403 223.408L733.114 245.458Z" fill="black"/>
<path d="M715.352 290.798L717.866 299.016C714.89 299.686 712.064 299.669 709.386 298.963C706.728 298.251 704.381 296.845 702.344 294.745C700.307 292.645 698.746 289.821 697.661 286.275C696.826 283.546 696.552 280.939 696.838 278.455C697.15 275.985 697.964 273.699 699.282 271.597C700.626 269.508 702.437 267.668 704.718 266.077C707.018 264.481 709.752 263.198 712.919 262.229L716.236 261.214C719.404 260.245 722.391 259.789 725.197 259.845C728.003 259.902 730.54 260.433 732.808 261.438C735.102 262.457 737.073 263.913 738.72 265.806C740.372 267.719 741.616 270.04 742.451 272.769C743.536 276.315 743.796 279.515 743.23 282.367C742.685 285.214 741.484 287.662 739.627 289.711C737.771 291.761 735.411 293.376 732.548 294.557L730.034 286.339C731.818 285.619 733.25 284.745 734.33 283.718C735.416 282.71 736.096 281.478 736.369 280.022C736.669 278.58 736.504 276.832 735.877 274.78C735.389 273.187 734.661 271.874 733.691 270.841C732.728 269.829 731.527 269.107 730.088 268.676C728.668 268.238 727.011 268.092 725.116 268.236C723.241 268.374 721.148 268.796 718.837 269.503L715.461 270.536C713.249 271.213 711.322 271.998 709.679 272.893C708.035 273.788 706.722 274.8 705.738 275.929C704.754 277.058 704.127 278.317 703.855 279.707C703.583 281.098 703.7 282.62 704.206 284.273C704.821 286.285 705.64 287.821 706.661 288.881C707.689 289.961 708.921 290.641 710.357 290.921C711.799 291.22 713.464 291.179 715.352 290.798Z" fill="black"/>
<path d="M750.688 309.665L706.136 318.901L704.391 310.486L748.944 301.25L750.688 309.665Z" fill="black"/>
<path d="M722.532 351.442C723.401 351.338 724.161 351.112 724.812 350.761C725.485 350.43 726.061 349.889 726.538 349.14C727.039 348.409 727.486 347.402 727.879 346.117C728.294 344.851 728.689 343.23 729.063 341.256C729.474 339.067 729.985 337.013 730.596 335.094C731.208 333.175 731.979 331.458 732.911 329.941C733.845 328.445 734.98 327.23 736.317 326.295C737.674 325.357 739.304 324.775 741.207 324.549C743.069 324.328 744.812 324.519 746.437 325.124C748.063 325.748 749.512 326.73 750.783 328.069C752.075 329.405 753.139 331.03 753.975 332.945C754.813 334.88 755.376 337.058 755.664 339.478C756.063 342.83 755.797 345.799 754.866 348.385C753.938 350.992 752.509 353.092 750.58 354.685C748.65 356.278 746.382 357.229 743.775 357.539L742.765 349.037C744.171 348.869 745.377 348.422 746.381 347.694C747.388 346.987 748.131 345.997 748.609 344.723C749.089 343.47 749.223 341.944 749.009 340.144C748.802 338.406 748.371 336.989 747.716 335.891C747.064 334.815 746.259 334.04 745.3 333.567C744.344 333.114 743.318 332.953 742.222 333.083C741.394 333.181 740.673 333.466 740.057 333.938C739.463 334.407 738.923 335.07 738.437 335.925C737.972 336.777 737.56 337.812 737.201 339.03C736.865 340.265 736.552 341.687 736.26 343.295C735.811 345.866 735.241 348.137 734.552 350.107C733.866 352.098 733.017 353.783 732.006 355.162C730.998 356.561 729.806 357.658 728.432 358.45C727.06 359.264 725.453 359.78 723.612 359.999C721.668 360.23 719.884 360.054 718.262 359.47C716.641 358.887 715.207 357.945 713.961 356.646C712.716 355.346 711.695 353.726 710.898 351.786C710.103 349.866 709.559 347.676 709.267 345.214C709.006 343.021 709.038 340.814 709.361 338.594C709.708 336.392 710.367 334.352 711.34 332.474C712.333 330.593 713.679 329.028 715.376 327.777C717.095 326.524 719.185 325.751 721.647 325.458L722.665 334.023C721.237 334.193 720.044 334.565 719.084 335.141C718.148 335.735 717.409 336.494 716.869 337.418C716.351 338.361 716.017 339.429 715.865 340.622C715.713 341.815 715.717 343.083 715.877 344.428C716.083 346.166 716.491 347.565 717.099 348.626C717.731 349.704 718.515 350.471 719.45 350.927C720.388 351.403 721.415 351.574 722.532 351.442Z" fill="black"/>
<path d="M750.226 385.296L711.628 372.34L711.625 363.246L757.131 380.231L757.133 386.044L750.226 385.296ZM711.636 396.152L750.226 383.108L757.131 382.325L757.133 388.169L711.639 405.277L711.636 396.152ZM728.542 395.553L721.761 395.555L721.753 371.149L728.534 371.147L728.542 395.553ZM769.072 391.009L768.73 395.915C767.209 395.915 765.834 395.603 764.604 394.979C763.396 394.375 762.437 393.552 761.729 392.511C761.02 391.469 760.665 390.272 760.665 388.917C760.665 387.917 760.8 387.053 761.07 386.324C761.341 385.615 761.664 384.959 762.038 384.355C762.413 383.771 762.736 383.167 763.007 382.542C763.298 381.917 763.444 381.187 763.443 380.354C763.443 379.604 763.162 378.958 762.599 378.417C762.036 377.896 761.276 377.636 760.317 377.636L760.566 372.699C762.066 372.698 763.431 373 764.66 373.604C765.889 374.207 766.869 375.03 767.598 376.071C768.328 377.134 768.693 378.342 768.693 379.696C768.693 380.55 768.558 381.321 768.288 382.009C768.017 382.717 767.694 383.394 767.32 384.04C766.966 384.686 766.643 385.343 766.351 386.009C766.081 386.697 765.946 387.437 765.946 388.228C765.946 388.999 766.228 389.655 766.79 390.197C767.353 390.738 768.113 391.009 769.072 391.009Z" fill="black"/>
<path d="M729.78 447.167L727.455 446.869C724.045 446.433 721.035 445.586 718.423 444.328C715.833 443.072 713.694 441.486 712.007 439.569C710.32 437.652 709.118 435.471 708.401 433.027C707.685 430.583 707.507 427.946 707.87 425.115C708.227 422.325 709.061 419.827 710.372 417.622C711.681 415.437 713.394 413.619 715.512 412.167C717.63 410.716 720.102 409.699 722.928 409.115C725.774 408.534 728.903 408.461 732.312 408.898L734.637 409.195C738.068 409.634 741.077 410.491 743.665 411.768C746.253 413.044 748.391 414.64 750.078 416.557C751.786 418.477 752.998 420.659 753.714 423.103C754.428 425.568 754.607 428.195 754.25 430.985C753.888 433.816 753.052 436.324 751.744 438.509C750.435 440.694 748.713 442.5 746.577 443.928C744.459 445.379 741.988 446.387 739.165 446.95C736.339 447.533 733.21 447.606 729.78 447.167ZM728.557 438.252L730.944 438.557C733.403 438.872 735.592 438.921 737.51 438.704C739.449 438.49 741.115 438.021 742.51 437.296C743.905 436.571 745.006 435.599 745.813 434.379C746.641 433.162 747.159 431.737 747.368 430.104C747.58 428.451 747.437 426.942 746.939 425.576C746.46 424.233 745.637 423.036 744.469 421.983C743.301 420.931 741.808 420.047 739.988 419.331C738.186 418.638 736.056 418.135 733.597 417.82L731.21 417.515C728.772 417.203 726.583 417.154 724.644 417.368C722.703 417.603 721.025 418.081 719.609 418.803C718.212 419.549 717.1 420.52 716.275 421.716C715.45 422.913 714.932 424.338 714.72 425.991C714.509 427.644 714.652 429.154 715.149 430.52C715.646 431.885 716.48 433.084 717.65 434.116C718.839 435.171 720.344 436.046 722.166 436.742C723.989 437.437 726.119 437.94 728.557 438.252Z" fill="black"/>
<path d="M696.247 501.604L689.816 499.551L697.172 476.509L703.602 478.562L696.247 501.604ZM739.719 492.846L696.373 479.01L698.987 470.823L742.332 484.66L739.719 492.846ZM716.23 504.67L709.948 502.665L716.344 482.629L722.625 484.634L716.23 504.67ZM733.19 513.298L726.73 511.236L734.057 488.283L740.517 490.346L733.19 513.298Z" fill="black"/>
<path d="M673.244 548.099L659.041 554.257L657.416 547.153L671.476 541.131L673.244 548.099ZM682.861 567.233L680.794 566.129C677.762 564.509 675.25 562.647 673.256 560.542C671.281 558.447 669.851 556.195 668.966 553.785C668.071 551.393 667.723 548.928 667.922 546.389C668.121 543.85 668.889 541.331 670.224 538.832C671.549 536.351 673.217 534.313 675.227 532.718C677.227 531.141 679.475 530.051 681.97 529.448C684.466 528.844 687.138 528.772 689.987 529.232C692.854 529.701 695.804 530.745 698.836 532.366L700.903 533.47C703.953 535.1 706.466 536.962 708.441 539.057C710.406 541.17 711.836 543.422 712.731 545.814C713.635 548.234 713.987 550.713 713.788 553.252C713.579 555.81 712.811 558.329 711.486 560.809C710.151 563.308 708.483 565.346 706.483 566.923C704.473 568.518 702.216 569.603 699.712 570.179C697.216 570.782 694.549 570.845 691.71 570.367C688.861 569.908 685.912 568.863 682.861 567.233ZM684.889 558.467L687.011 559.601C689.197 560.769 691.226 561.593 693.095 562.072C694.983 562.562 696.713 562.706 698.284 562.507C699.846 562.325 701.216 561.817 702.394 560.982C703.591 560.157 704.582 559.01 705.367 557.54C706.143 556.088 706.541 554.636 706.562 553.182C706.601 551.739 706.262 550.317 705.545 548.919C704.828 547.52 703.746 546.162 702.3 544.846C700.862 543.558 699.05 542.33 696.864 541.162L694.741 540.028C692.573 538.869 690.545 538.045 688.657 537.556C686.759 537.085 685.02 536.935 683.44 537.107C681.869 537.307 680.485 537.819 679.288 538.644C678.082 539.488 677.091 540.635 676.315 542.087C675.53 543.557 675.126 545.018 675.106 546.472C675.085 547.925 675.438 549.342 676.165 550.723C676.9 552.131 677.996 553.484 679.452 554.782C680.908 556.08 682.72 557.308 684.889 558.467Z" fill="black"/>
<path d="M679.353 609.348L674.338 616.327L649.798 598.693C646.973 596.662 645.033 594.345 643.98 591.741C642.943 589.149 642.688 586.452 643.214 583.649C643.758 580.858 644.989 578.126 646.91 575.453C648.855 572.746 651.07 570.682 653.554 569.26C656.055 567.85 658.693 567.232 661.468 567.404C664.26 567.589 667.068 568.696 669.894 570.726L694.434 588.36L689.419 595.339L664.879 577.705C663.153 576.465 661.534 575.738 660.021 575.523C658.525 575.32 657.137 575.555 655.859 576.227C654.581 576.899 653.425 577.954 652.392 579.392C651.346 580.847 650.715 582.279 650.498 583.688C650.269 585.114 650.495 586.495 651.176 587.831C651.875 589.18 653.087 590.474 654.813 591.714L679.353 609.348Z" fill="black"/>
<path d="M646.936 636.313L627.503 600.536L633.695 593.876L655.441 637.308L651.483 641.565L646.936 636.313ZM611.288 617.975L648.426 634.711L654.015 638.842L650.036 643.121L605.075 624.657L611.288 617.975ZM624.074 629.052L619.108 624.434L635.727 606.561L640.693 611.178L624.074 629.052Z" fill="black"/>
<path d="M585.457 649.348L581.056 644.229L598.401 629.316L602.802 634.434L585.457 649.348ZM626.098 665.508L596.434 631.007L602.951 625.404L632.614 659.905L626.098 665.508Z" fill="black"/>
<path d="M596.428 688.701L569.606 651.947L576.548 646.881L603.37 683.635L596.428 688.701Z" fill="black"/>
<path d="M549.268 664.982L557.695 659.954L561.1 665.783L552.727 670.779C550.455 672.134 548.848 673.772 547.908 675.692C546.977 677.63 546.685 679.782 547.029 682.148C547.384 684.532 548.357 687.057 549.947 689.722L551.148 691.735C552.376 693.793 553.683 695.475 555.069 696.783C556.456 698.09 557.908 699.019 559.425 699.569C560.924 700.13 562.474 700.309 564.076 700.106C565.677 699.903 567.3 699.31 568.946 698.328L577.695 693.108L581.169 698.932L572.421 704.152C569.809 705.71 567.168 706.691 564.498 707.096C561.81 707.511 559.188 707.365 556.631 706.658C554.068 705.98 551.688 704.756 549.491 702.986C547.277 701.226 545.331 698.942 543.656 696.133L542.487 694.174C540.821 691.383 539.735 688.586 539.227 685.784C538.713 683.01 538.766 680.334 539.387 677.756C539.99 675.188 541.121 672.815 542.78 670.636C544.44 668.457 546.603 666.573 549.268 664.982ZM576.876 701.494L553.562 662.42L560.942 658.017L584.256 697.09L576.876 701.494Z" fill="black"/>
<path d="M523.017 721.394L519.381 680.842L527.708 677.188L530.428 725.683L525.106 728.019L523.017 721.394ZM497.577 690.413L525.02 720.515L528.511 726.525L523.16 728.874L489.221 694.08L497.577 690.413ZM504.915 705.655L502.19 699.445L524.538 689.636L527.263 695.846L504.915 705.655Z" fill="black"/>
<path d="M473.76 698.005L483.165 695.206L485.031 701.694L475.686 704.474C473.15 705.229 471.189 706.421 469.805 708.05C468.426 709.699 467.613 711.713 467.364 714.091C467.121 716.489 467.442 719.176 468.328 722.151L468.996 724.397C469.68 726.694 470.532 728.646 471.554 730.255C472.577 731.863 473.755 733.121 475.09 734.028C476.405 734.941 477.863 735.496 479.465 735.693C481.067 735.89 482.787 735.716 484.624 735.169L494.388 732.263L496.322 738.763L486.558 741.668C483.643 742.536 480.841 742.837 478.154 742.572C475.447 742.312 472.941 741.525 470.637 740.211C468.319 738.923 466.314 737.151 464.621 734.894C462.908 732.643 461.585 729.95 460.652 726.815L460.001 724.629C459.074 721.514 458.71 718.536 458.908 715.695C459.091 712.879 459.802 710.299 461.038 707.953C462.254 705.613 463.935 703.591 466.08 701.888C468.225 700.185 470.785 698.89 473.76 698.005ZM491.53 740.189L478.553 696.579L486.789 694.128L499.767 737.738L491.53 740.189Z" fill="black"/>
<path d="M417.484 716.879L416.334 710.228L440.168 706.106L441.318 712.757L417.484 716.879ZM445.335 751.388L437.581 706.553L446.049 705.089L453.803 749.923L445.335 751.388ZM423.997 736.018L422.874 729.521L443.597 725.937L444.721 732.434L423.997 736.018ZM424.18 755.046L423.025 748.364L446.766 744.258L447.922 750.94L424.18 755.046Z" fill="black"/>
<circle cx="377" cy="736" r="13" fill="black"/>
</svg>
